<?xml version="1.0" encoding="us-ascii" standalone="no"?><svg xmlns="http://www.w3.org/2000/svg" xmlns:xlink="http://www.w3.org/1999/xlink" contentStyleType="text/css" height="418px" preserveAspectRatio="none" style="width:739px;height:418px;background:#FFFFFF;" version="1.1" viewBox="0 0 739 418" width="739px" zoomAndPan="magnify"><defs/><g><!--class KeysymEntry--><g id="elem_KeysymEntry"><rect codeLine="4" fill="#F1F1F1" height="32" id="KeysymEntry" rx="2.5" ry="2.5" style="stroke:#181818;stroke-width:0.5;" width="118" x="214.5" y="114.5"/><ellipse cx="229.5" cy="130.5" fill="#ADD1B2" rx="11" ry="11" style="stroke:#181818;stroke-width:1.0;"/><path d="M228.9688,137.4219 Q227.2188,137.4219 226.0781,136.6875 Q224.9531,135.9375 224.3906,134.5938 Q223.8438,133.2344 223.8438,131.4375 Q223.8438,129.4063 224.5,127.9531 Q225.1563,126.5 226.4375,125.7188 Q227.7188,124.9375 229.5938,124.9375 Q230.4844,124.9375 231.1563,125.125 Q231.8281,125.2969 232.5156,125.6406 L231.7031,127.6563 Q231.0781,127.3438 230.5313,127.2188 Q230,127.0938 229.5156,127.0938 Q228.3438,127.0938 227.6406,127.625 Q226.9375,128.1563 226.6406,129.1094 Q226.3438,130.0625 226.3438,131.3281 Q226.3438,133.3438 227.0625,134.3125 Q227.7813,135.2656 229.375,135.2656 Q229.9688,135.2656 230.5938,135.1094 Q231.2188,134.9531 232.0469,134.5781 L232.0469,136.7969 Q231.3125,137.1094 230.5156,137.2656 Q229.7344,137.4219 228.9688,137.4219 Z " fill="#000000"/><text fill="#000000" font-family="sans-serif" font-size="14" lengthAdjust="spacing" textLength="86" x="243.5" y="135.932">KeysymEntry</text></g><!--class Mnemonic--><g id="elem_Mnemonic"><rect codeLine="5" fill="#F1F1F1" height="59.0679" id="Mnemonic" rx="2.5" ry="2.5" style="stroke:#181818;stroke-width:0.5;" width="132" x="600" y="7"/><ellipse cx="628.05" cy="23" fill="#ADD1B2" rx="11" ry="11" style="stroke:#181818;stroke-width:1.0;"/><path d="M627.5188,29.9219 Q625.7688,29.9219 624.6281,29.1875 Q623.5031,28.4375 622.9406,27.0938 Q622.3938,25.7344 622.3938,23.9375 Q622.3938,21.9063 623.05,20.4531 Q623.7063,19 624.9875,18.2188 Q626.2688,17.4375 628.1438,17.4375 Q629.0344,17.4375 629.7063,17.625 Q630.3781,17.7969 631.0656,18.1406 L630.2531,20.1563 Q629.6281,19.8438 629.0813,19.7188 Q628.55,19.5938 628.0656,19.5938 Q626.8938,19.5938 626.1906,20.125 Q625.4875,20.6563 625.1906,21.6094 Q624.8938,22.5625 624.8938,23.8281 Q624.8938,25.8438 625.6125,26.8125 Q626.3313,27.7656 627.925,27.7656 Q628.5188,27.7656 629.1438,27.6094 Q629.7688,27.4531 630.5969,27.0781 L630.5969,29.2969 Q629.8625,29.6094 629.0656,29.7656 Q628.2844,29.9219 627.5188,29.9219 Z " fill="#000000"/><text fill="#000000" font-family="sans-serif" font-size="14" lengthAdjust="spacing" textLength="71" x="644.95" y="28.432">Mnemonic</text><line style="stroke:#181818;stroke-width:0.5;" x1="601" x2="731" y1="39" y2="39"/><text fill="#000000" font-family="sans-serif" font-size="14" lengthAdjust="spacing" textLength="120" x="606" y="57.9659">mnemonic: String</text></g><!--class Ucp--><g id="elem_Ucp"><rect codeLine="8" fill="#F1F1F1" height="59.0679" id="Ucp" rx="2.5" ry="2.5" style="stroke:#181818;stroke-width:0.5;" width="63" x="634.5" y="101"/><ellipse cx="651.75" cy="117" fill="#ADD1B2" rx="11" ry="11" style="stroke:#181818;stroke-width:1.0;"/><path d="M651.2188,123.9219 Q649.4688,123.9219 648.3281,123.1875 Q647.2031,122.4375 646.6406,121.0938 Q646.0938,119.7344 646.0938,117.9375 Q646.0938,115.9063 646.75,114.4531 Q647.4063,113 648.6875,112.2188 Q649.9688,111.4375 651.8438,111.4375 Q652.7344,111.4375 653.4063,111.625 Q654.0781,111.7969 654.7656,112.1406 L653.9531,114.1563 Q653.3281,113.8438 652.7813,113.7188 Q652.25,113.5938 651.7656,113.5938 Q650.5938,113.5938 649.8906,114.125 Q649.1875,114.6563 648.8906,115.6094 Q648.5938,116.5625 648.5938,117.8281 Q648.5938,119.8438 649.3125,120.8125 Q650.0313,121.7656 651.625,121.7656 Q652.2188,121.7656 652.8438,121.6094 Q653.4688,121.4531 654.2969,121.0781 L654.2969,123.2969 Q653.5625,123.6094 652.7656,123.7656 Q651.9844,123.9219 651.2188,123.9219 Z " fill="#000000"/><text fill="#000000" font-family="sans-serif" font-size="14" lengthAdjust="spacing" textLength="26" x="666.25" y="122.432">Ucp</text><line style="stroke:#181818;stroke-width:0.5;" x1="635.5" x2="696.5" y1="133" y2="133"/><text fill="#000000" font-family="sans-serif" font-size="14" lengthAdjust="spacing" textLength="51" x="640.5" y="151.9659">ucp: int</text></g><!--class Code--><g id="elem_Code"><rect codeLine="11" fill="#F1F1F1" height="59.0679" id="Code" rx="2.5" ry="2.5" style="stroke:#181818;stroke-width:0.5;" width="70" x="631" y="195"/><ellipse cx="647.8" cy="211" fill="#ADD1B2" rx="11" ry="11" style="stroke:#181818;stroke-width:1.0;"/><path d="M647.2688,217.9219 Q645.5188,217.9219 644.3781,217.1875 Q643.2531,216.4375 642.6906,215.0938 Q642.1438,213.7344 642.1438,211.9375 Q642.1438,209.9063 642.8,208.4531 Q643.4563,207 644.7375,206.2188 Q646.0188,205.4375 647.8938,205.4375 Q648.7844,205.4375 649.4563,205.625 Q650.1281,205.7969 650.8156,206.1406 L650.0031,208.1563 Q649.3781,207.8438 648.8313,207.7188 Q648.3,207.5938 647.8156,207.5938 Q646.6438,207.5938 645.9406,208.125 Q645.2375,208.6563 644.9406,209.6094 Q644.6438,210.5625 644.6438,211.8281 Q644.6438,213.8438 645.3625,214.8125 Q646.0813,215.7656 647.675,215.7656 Q648.2688,215.7656 648.8938,215.6094 Q649.5188,215.4531 650.3469,215.0781 L650.3469,217.2969 Q649.6125,217.6094 648.8156,217.7656 Q648.0344,217.9219 647.2688,217.9219 Z " fill="#000000"/><text fill="#000000" font-family="sans-serif" font-size="14" lengthAdjust="spacing" textLength="34" x="662.2" y="216.432">Code</text><line style="stroke:#181818;stroke-width:0.5;" x1="632" x2="700" y1="227" y2="227"/><text fill="#000000" font-family="sans-serif" font-size="14" lengthAdjust="spacing" textLength="58" x="637" y="245.9659">code: int</text></g><!--class KeyboardMap--><g id="elem_KeyboardMap"><rect codeLine="19" fill="#F1F1F1" height="135.3396" id="KeyboardMap" rx="2.5" ry="2.5" style="stroke:#181818;stroke-width:0.5;" width="533" x="7" y="182"/><ellipse cx="222.25" cy="198" fill="#ADD1B2" rx="11" ry="11" style="stroke:#181818;stroke-width:1.0;"/><path d="M221.7188,204.9219 Q219.9688,204.9219 218.8281,204.1875 Q217.7031,203.4375 217.1406,202.0938 Q216.5938,200.7344 216.5938,198.9375 Q216.5938,196.9063 217.25,195.4531 Q217.9063,194 219.1875,193.2188 Q220.4688,192.4375 222.3438,192.4375 Q223.2344,192.4375 223.9063,192.625 Q224.5781,192.7969 225.2656,193.1406 L224.4531,195.1563 Q223.8281,194.8438 223.2813,194.7188 Q222.75,194.5938 222.2656,194.5938 Q221.0938,194.5938 220.3906,195.125 Q219.6875,195.6563 219.3906,196.6094 Q219.0938,197.5625 219.0938,198.8281 Q219.0938,200.8438 219.8125,201.8125 Q220.5313,202.7656 222.125,202.7656 Q222.7188,202.7656 223.3438,202.6094 Q223.9688,202.4531 224.7969,202.0781 L224.7969,204.2969 Q224.0625,204.6094 223.2656,204.7656 Q222.4844,204.9219 221.7188,204.9219 Z " fill="#000000"/><text fill="#000000" font-family="sans-serif" font-size="14" lengthAdjust="spacing" textLength="94" x="242.75" y="203.432">KeyboardMap</text><line style="stroke:#181818;stroke-width:0.5;" x1="8" x2="539" y1="214" y2="214"/><text fill="#000000" font-family="sans-serif" font-size="14" lengthAdjust="spacing" textLength="308" x="13" y="232.9659">entries(xKeyName: String): List&lt;KeysymEntry&gt;</text><text fill="#000000" font-family="sans-serif" font-size="14" lengthAdjust="spacing" textLength="292" x="13" y="252.0339">xKeyNames(mnemonic: String): Set&lt;String&gt;</text><text fill="#000000" font-family="sans-serif" font-size="14" lengthAdjust="spacing" textLength="223" x="13" y="271.1018">xKeyNames(ucp: int): Set&lt;String&gt;</text><text fill="#000000" font-family="sans-serif" font-size="14" lengthAdjust="spacing" textLength="230" x="13" y="290.1697">xKeyNames(code: int): Set&lt;String&gt;</text><text fill="#000000" font-family="sans-serif" font-size="14" lengthAdjust="spacing" textLength="521" x="13" y="309.2376">canonicalize(canonicalXKeyNameByAlias: Map&lt;String, String&gt;): KeyboardMap</text></g><!--class SimpleSymbolsReader--><g id="elem_SimpleSymbolsReader"><rect codeLine="27" fill="#F1F1F1" height="59.0679" id="SimpleSymbolsReader" rx="2.5" ry="2.5" style="stroke:#181818;stroke-width:0.5;" width="280" x="133.5" y="352"/><ellipse cx="194.25" cy="368" fill="#ADD1B2" rx="11" ry="11" style="stroke:#181818;stroke-width:1.0;"/><path d="M193.7188,374.9219 Q191.9688,374.9219 190.8281,374.1875 Q189.7031,373.4375 189.1406,372.0938 Q188.5938,370.7344 188.5938,368.9375 Q188.5938,366.9063 189.25,365.4531 Q189.9063,364 191.1875,363.2188 Q192.4688,362.4375 194.3438,362.4375 Q195.2344,362.4375 195.9063,362.625 Q196.5781,362.7969 197.2656,363.1406 L196.4531,365.1563 Q195.8281,364.8438 195.2813,364.7188 Q194.75,364.5938 194.2656,364.5938 Q193.0938,364.5938 192.3906,365.125 Q191.6875,365.6563 191.3906,366.6094 Q191.0938,367.5625 191.0938,368.8281 Q191.0938,370.8438 191.8125,371.8125 Q192.5313,372.7656 194.125,372.7656 Q194.7188,372.7656 195.3438,372.6094 Q195.9688,372.4531 196.7969,372.0781 L196.7969,374.2969 Q196.0625,374.6094 195.2656,374.7656 Q194.4844,374.9219 193.7188,374.9219 Z " fill="#000000"/><text fill="#000000" font-family="sans-serif" font-size="14" lengthAdjust="spacing" textLength="150" x="214.75" y="373.432">SimpleSymbolsReader</text><line style="stroke:#181818;stroke-width:0.5;" x1="134.5" x2="412.5" y1="384" y2="384"/><text fill="#000000" font-family="sans-serif" font-size="14" lengthAdjust="spacing" textLength="268" x="139.5" y="402.9659">read(CharSource source): KeyboardMap</text></g><!--reverse link KeysymEntry to Mnemonic--><g id="link_KeysymEntry_Mnemonic"><path codeLine="15" d="M350.0401,112.3172 C421.5301,95.1072 525.16,70.16 599.79,52.2 " fill="none" id="KeysymEntry-backto-Mnemonic" style="stroke:#181818;stroke-width:1.0;"/><polygon fill="none" points="332.54,116.53,351.4443,118.1505,348.6358,106.4838,332.54,116.53" style="stroke:#181818;stroke-width:1.0;"/></g><!--reverse link KeysymEntry to Ucp--><g id="link_KeysymEntry_Ucp"><path codeLine="16" d="M350.54,130.5 C434.68,130.5 569.54,130.5 634.49,130.5 " fill="none" id="KeysymEntry-backto-Ucp" style="stroke:#181818;stroke-width:1.0;"/><polygon fill="none" points="332.54,130.5,350.54,136.5,350.54,124.5,332.54,130.5" style="stroke:#181818;stroke-width:1.0;"/></g><!--reverse link KeysymEntry to Code--><g id="link_KeysymEntry_Code"><path codeLine="17" d="M350.5287,133.6609 C405.0687,136.8809 470.48,143.95 540,164.5 C572.2,174.02 606.43,190.98 630.91,204.45 " fill="none" id="KeysymEntry-backto-Code" style="stroke:#181818;stroke-width:1.0;"/><polygon fill="none" points="332.56,132.6,350.1751,139.6504,350.8823,127.6713,332.56,132.6" style="stroke:#181818;stroke-width:1.0;"/></g><!--link KeysymEntry to KeyboardMap--><!--link KeyboardMap to SimpleSymbolsReader--><!--SRC=[VL3BQiCm4BphAvQSN6X-m1X36tfgqaDDeL1waALjlA27aHIe-_Ztol6ZScDwqgvcTcTd6f88gDlGWKPTe_DCuLk0OC7HiGaWoQ48P0rZGd7lONEFdU_qdGcksy3dz_HzCAYj8H7_680UknoguCWSsSnx4kr0EOas1pBX5zfPYGCcOZM1RAbOV6stYTegscki0cU5r4bjkPC7Ffw4aKlei_U8F72Dq_LNEUp9XoBPM4RwHFFPNxjneC9G3CsIEjd-XpAxl-08RdePhkW3ixbv7YTlknj5tESG3Or3r-D1PLoLsErZ7KEeIBSAgqxNLlb7v1BT48QBTRPhkAlioGa4VtukzoIXmFQb8IdHl9OBLbAdb1LfzWC0]--></g></svg>