<?xml version="1.0" encoding="UTF-8" standalone="no"?><svg xmlns="http://www.w3.org/2000/svg" xmlns:xlink="http://www.w3.org/1999/xlink" contentScriptType="application/ecmascript" contentStyleType="text/css" height="347px" preserveAspectRatio="none" style="width:595px;height:347px;" version="1.1" viewBox="0 0 595 347" width="595px" zoomAndPan="magnify"><defs><filter height="300%" id="f70h7ekq84tye" width="300%" x="-1" y="-1"><feGaussianBlur result="blurOut" stdDeviation="2.0"/><feColorMatrix in="blurOut" result="blurOut2" type="matrix" values="0 0 0 0 0 0 0 0 0 0 0 0 0 0 0 0 0 0 .4 0"/><feOffset dx="4.0" dy="4.0" in="blurOut2" result="blurOut3"/><feBlend in="SourceGraphic" in2="blurOut3" mode="normal"/></filter></defs><g><!--MD5=[2999b900d8d4a0e405eea8476ff5fc97]
class KeysymEntry--><rect fill="#FEFECE" filter="url(#f70h7ekq84tye)" height="32" id="KeysymEntry" style="stroke: #A80036; stroke-width: 1.5;" width="101" x="162" y="109.5"/><ellipse cx="177" cy="125.5" fill="#B4A7E5" rx="11" ry="11" style="stroke: #A80036; stroke-width: 1.0;"/><path d="M173.0313,132 L173.0313,130.2969 L175.3906,130.0313 L175.3906,121.8281 L173.0313,121.5625 L173.0313,119.8594 L180.1719,119.8594 L180.1719,121.5625 L177.75,121.8281 L177.75,130.0313 L180.1719,130.2969 L180.1719,132 L173.0313,132 Z "/><text fill="#000000" font-family="sans-serif" font-size="12" font-style="italic" lengthAdjust="spacingAndGlyphs" textLength="69" x="191" y="130.156">KeysymEntry</text><!--MD5=[674213016e336656b70186785f479211]
class Mnemonic--><rect fill="#FEFECE" filter="url(#f70h7ekq84tye)" height="54.9819" id="Mnemonic" style="stroke: #A80036; stroke-width: 1.5;" width="105" x="479" y="8"/><ellipse cx="500.3" cy="24" fill="#ADD1B2" rx="11" ry="11" style="stroke: #A80036; stroke-width: 1.0;"/><path d="M499.7688,30.9219 Q498.0188,30.9219 496.8781,30.1875 Q495.7531,29.4375 495.1906,28.0938 Q494.6438,26.7344 494.6438,24.9375 Q494.6438,22.9063 495.3,21.4531 Q495.9563,20 497.2375,19.2188 Q498.5188,18.4375 500.3938,18.4375 Q501.2844,18.4375 501.9563,18.625 Q502.6281,18.7969 503.3156,19.1406 L502.5031,21.1563 Q501.8781,20.8438 501.3313,20.7188 Q500.8,20.5938 500.3156,20.5938 Q499.1438,20.5938 498.4406,21.125 Q497.7375,21.6563 497.4406,22.6094 Q497.1438,23.5625 497.1438,24.8281 Q497.1438,26.8438 497.8625,27.8125 Q498.5813,28.7656 500.175,28.7656 Q500.7688,28.7656 501.3938,28.6094 Q502.0188,28.4531 502.8469,28.0781 L502.8469,30.2969 Q502.1125,30.6094 501.3156,30.7656 Q500.5344,30.9219 499.7688,30.9219 Z "/><text fill="#000000" font-family="sans-serif" font-size="12" lengthAdjust="spacingAndGlyphs" textLength="59" x="515.7" y="28.656">Mnemonic</text><line style="stroke: #A80036; stroke-width: 1.5;" x1="480" x2="583" y1="40" y2="40"/><text fill="#000000" font-family="sans-serif" font-size="11" lengthAdjust="spacingAndGlyphs" textLength="93" x="485" y="55.7589">mnemonic: String</text><!--MD5=[8f6db691d40053f8dd3d69a1c6f49ce9]
class Ucp--><rect fill="#FEFECE" filter="url(#f70h7ekq84tye)" height="54.9819" id="Ucp" style="stroke: #A80036; stroke-width: 1.5;" width="54" x="504.5" y="98"/><ellipse cx="519.5" cy="114" fill="#ADD1B2" rx="11" ry="11" style="stroke: #A80036; stroke-width: 1.0;"/><path d="M518.9688,120.9219 Q517.2188,120.9219 516.0781,120.1875 Q514.9531,119.4375 514.3906,118.0938 Q513.8438,116.7344 513.8438,114.9375 Q513.8438,112.9063 514.5,111.4531 Q515.1563,110 516.4375,109.2188 Q517.7188,108.4375 519.5938,108.4375 Q520.4844,108.4375 521.1563,108.625 Q521.8281,108.7969 522.5156,109.1406 L521.7031,111.1563 Q521.0781,110.8438 520.5313,110.7188 Q520,110.5938 519.5156,110.5938 Q518.3438,110.5938 517.6406,111.125 Q516.9375,111.6563 516.6406,112.6094 Q516.3438,113.5625 516.3438,114.8281 Q516.3438,116.8438 517.0625,117.8125 Q517.7813,118.7656 519.375,118.7656 Q519.9688,118.7656 520.5938,118.6094 Q521.2188,118.4531 522.0469,118.0781 L522.0469,120.2969 Q521.3125,120.6094 520.5156,120.7656 Q519.7344,120.9219 518.9688,120.9219 Z "/><text fill="#000000" font-family="sans-serif" font-size="12" lengthAdjust="spacingAndGlyphs" textLength="22" x="533.5" y="118.656">Ucp</text><line style="stroke: #A80036; stroke-width: 1.5;" x1="505.5" x2="557.5" y1="130" y2="130"/><text fill="#000000" font-family="sans-serif" font-size="11" lengthAdjust="spacingAndGlyphs" textLength="39" x="510.5" y="145.7589">ucp: int</text><!--MD5=[ba580110b1777f63e0f1dfe3fcefdac0]
class Code--><rect fill="#FEFECE" filter="url(#f70h7ekq84tye)" height="54.9819" id="Code" style="stroke: #A80036; stroke-width: 1.5;" width="61" x="501" y="188"/><ellipse cx="516" cy="204" fill="#ADD1B2" rx="11" ry="11" style="stroke: #A80036; stroke-width: 1.0;"/><path d="M515.4688,210.9219 Q513.7188,210.9219 512.5781,210.1875 Q511.4531,209.4375 510.8906,208.0938 Q510.3438,206.7344 510.3438,204.9375 Q510.3438,202.9063 511,201.4531 Q511.6563,200 512.9375,199.2188 Q514.2188,198.4375 516.0938,198.4375 Q516.9844,198.4375 517.6563,198.625 Q518.3281,198.7969 519.0156,199.1406 L518.2031,201.1563 Q517.5781,200.8438 517.0313,200.7188 Q516.5,200.5938 516.0156,200.5938 Q514.8438,200.5938 514.1406,201.125 Q513.4375,201.6563 513.1406,202.6094 Q512.8438,203.5625 512.8438,204.8281 Q512.8438,206.8438 513.5625,207.8125 Q514.2813,208.7656 515.875,208.7656 Q516.4688,208.7656 517.0938,208.6094 Q517.7188,208.4531 518.5469,208.0781 L518.5469,210.2969 Q517.8125,210.6094 517.0156,210.7656 Q516.2344,210.9219 515.4688,210.9219 Z "/><text fill="#000000" font-family="sans-serif" font-size="12" lengthAdjust="spacingAndGlyphs" textLength="29" x="530" y="208.656">Code</text><line style="stroke: #A80036; stroke-width: 1.5;" x1="502" x2="561" y1="220" y2="220"/><text fill="#000000" font-family="sans-serif" font-size="11" lengthAdjust="spacingAndGlyphs" textLength="45" x="507" y="235.7589">code: int</text><!--MD5=[f3c2db4690535d756a90b2330e07fb74]
class KeyboardMap--><rect fill="#FEFECE" filter="url(#f70h7ekq84tye)" height="69.9638" id="KeyboardMap" style="stroke: #A80036; stroke-width: 1.5;" width="413" x="6" y="176.5"/><ellipse cx="169.25" cy="192.5" fill="#ADD1B2" rx="11" ry="11" style="stroke: #A80036; stroke-width: 1.0;"/><path d="M168.7188,199.4219 Q166.9688,199.4219 165.8281,198.6875 Q164.7031,197.9375 164.1406,196.5938 Q163.5938,195.2344 163.5938,193.4375 Q163.5938,191.4063 164.25,189.9531 Q164.9063,188.5 166.1875,187.7188 Q167.4688,186.9375 169.3438,186.9375 Q170.2344,186.9375 170.9063,187.125 Q171.5781,187.2969 172.2656,187.6406 L171.4531,189.6563 Q170.8281,189.3438 170.2813,189.2188 Q169.75,189.0938 169.2656,189.0938 Q168.0938,189.0938 167.3906,189.625 Q166.6875,190.1563 166.3906,191.1094 Q166.0938,192.0625 166.0938,193.3281 Q166.0938,195.3438 166.8125,196.3125 Q167.5313,197.2656 169.125,197.2656 Q169.7188,197.2656 170.3438,197.1094 Q170.9688,196.9531 171.7969,196.5781 L171.7969,198.7969 Q171.0625,199.1094 170.2656,199.2656 Q169.4844,199.4219 168.7188,199.4219 Z "/><text fill="#000000" font-family="sans-serif" font-size="12" lengthAdjust="spacingAndGlyphs" textLength="78" x="189.75" y="197.156">KeyboardMap</text><line style="stroke: #A80036; stroke-width: 1.5;" x1="7" x2="418" y1="208.5" y2="208.5"/><text fill="#000000" font-family="sans-serif" font-size="11" lengthAdjust="spacingAndGlyphs" textLength="239" x="12" y="224.2589">entries(xKeyName: String): List&lt;KeysymEntry&gt;</text><text fill="#000000" font-family="sans-serif" font-size="11" lengthAdjust="spacingAndGlyphs" textLength="401" x="12" y="239.2408">canonicalize(canonicalXKeyNameByAlias: Map&lt;String, String&gt;): KeyboardMap</text><!--MD5=[a51e33e0c83ef8b009f4600a0472725a]
class SimpleSymbolsReader--><rect fill="#FEFECE" filter="url(#f70h7ekq84tye)" height="54.9819" id="SimpleSymbolsReader" style="stroke: #A80036; stroke-width: 1.5;" width="221" x="102" y="282"/><ellipse cx="145.8" cy="298" fill="#ADD1B2" rx="11" ry="11" style="stroke: #A80036; stroke-width: 1.0;"/><path d="M145.2688,304.9219 Q143.5188,304.9219 142.3781,304.1875 Q141.2531,303.4375 140.6906,302.0938 Q140.1438,300.7344 140.1438,298.9375 Q140.1438,296.9063 140.8,295.4531 Q141.4563,294 142.7375,293.2188 Q144.0188,292.4375 145.8938,292.4375 Q146.7844,292.4375 147.4563,292.625 Q148.1281,292.7969 148.8156,293.1406 L148.0031,295.1563 Q147.3781,294.8438 146.8313,294.7188 Q146.3,294.5938 145.8156,294.5938 Q144.6438,294.5938 143.9406,295.125 Q143.2375,295.6563 142.9406,296.6094 Q142.6438,297.5625 142.6438,298.8281 Q142.6438,300.8438 143.3625,301.8125 Q144.0813,302.7656 145.675,302.7656 Q146.2688,302.7656 146.8938,302.6094 Q147.5188,302.4531 148.3469,302.0781 L148.3469,304.2969 Q147.6125,304.6094 146.8156,304.7656 Q146.0344,304.9219 145.2688,304.9219 Z "/><text fill="#000000" font-family="sans-serif" font-size="12" lengthAdjust="spacingAndGlyphs" textLength="125" x="166.2" y="302.656">SimpleSymbolsReader</text><line style="stroke: #A80036; stroke-width: 1.5;" x1="103" x2="322" y1="314" y2="314"/><text fill="#000000" font-family="sans-serif" font-size="11" lengthAdjust="spacingAndGlyphs" textLength="209" x="108" y="329.7589">read(CharSource source): KeyboardMap</text><!--MD5=[18109d280516c67b1d839db50d5496f2]
reverse link KeysymEntry to Mnemonic--><path d="M282.44,105.93 C341.58,89.14 425.48,65.32 478.95,50.14 " fill="none" id="KeysymEntry&lt;-Mnemonic" style="stroke: #A80036; stroke-width: 1.0;"/><polygon fill="none" points="284.18,112.71,263.03,111.44,280.36,99.24,284.18,112.71" style="stroke: #A80036; stroke-width: 1.0;"/><!--MD5=[879ff8437bf2044af49b4bbb4e786794]
reverse link KeysymEntry to Ucp--><path d="M283.45,125.5 C353.04,125.5 456.16,125.5 504.15,125.5 " fill="none" id="KeysymEntry&lt;-Ucp" style="stroke: #A80036; stroke-width: 1.0;"/><polygon fill="none" points="283.03,132.5,263.03,125.5,283.03,118.5,283.03,132.5" style="stroke: #A80036; stroke-width: 1.0;"/><!--MD5=[73851849970db954b53bc74adb71a8d1]
reverse link KeysymEntry to Code--><path d="M283.09,131.74 C323.48,136.65 374.93,145.15 419,159.5 C448.04,168.95 478.92,184.98 500.8,197.47 " fill="none" id="KeysymEntry&lt;-Code" style="stroke: #A80036; stroke-width: 1.0;"/><polygon fill="none" points="282.16,138.68,263.07,129.48,283.73,124.76,282.16,138.68" style="stroke: #A80036; stroke-width: 1.0;"/><!--MD5=[591be3da095af4f04c2629f3671082ed]
link KeysymEntry to KeyboardMap--><!--MD5=[41f6777a6b149c23b9b12d61e67cde2a]
link KeyboardMap to SimpleSymbolsReader--><!--MD5=[a73786476ccb124687d9e9c7301fe7a4]
@startuml Mapping
hide empty members
left to right direction

interface "KeysymEntry" {}
class "Mnemonic" {
  mnemonic: String
}
class "Ucp" {
  ucp: int
}
class "Code" {
  code: int
}

"KeysymEntry" <|- - "Mnemonic"
"KeysymEntry" <|- - "Ucp"
"KeysymEntry" <|- - "Code"

class "KeyboardMap" {
  entries(xKeyName: String): List<KeysymEntry>
  canonicalize(canonicalXKeyNameByAlias: Map<String, String>): KeyboardMap
}

class "SimpleSymbolsReader" {
  read(CharSource source): KeyboardMap
}

KeysymEntry -[hidden]> KeyboardMap
KeyboardMap -[hidden]> SimpleSymbolsReader

@enduml

PlantUML version 1.2020.02(Sun Mar 01 11:22:07 CET 2020)
(GPL source distribution)
Java Runtime: OpenJDK Runtime Environment
JVM: OpenJDK 64-Bit Server VM
Java Version: 17.0.11+9-Debian-1deb12u1
Operating System: Linux
Default Encoding: UTF-8
Language: fr
Country: FR
--></g></svg>