<?xml version="1.0" encoding="us-ascii" standalone="no"?><svg xmlns="http://www.w3.org/2000/svg" xmlns:xlink="http://www.w3.org/1999/xlink" contentStyleType="text/css" height="417px" preserveAspectRatio="none" style="width:783px;height:417px;background:#FFFFFF;" version="1.1" viewBox="0 0 783 417" width="783px" zoomAndPan="magnify"><defs/><g><!--class CanonicalMnemonic--><g id="elem_CanonicalMnemonic"><rect codeLine="3" fill="#F1F1F1" height="154.4075" id="CanonicalMnemonic" rx="2.5" ry="2.5" style="stroke:#181818;stroke-width:0.5;" width="250" x="101.5" y="20.5"/><ellipse cx="153.75" cy="36.5" fill="#ADD1B2" rx="11" ry="11" style="stroke:#181818;stroke-width:1.0;"/><path d="M153.2188,43.4219 Q151.4688,43.4219 150.3281,42.6875 Q149.2031,41.9375 148.6406,40.5938 Q148.0938,39.2344 148.0938,37.4375 Q148.0938,35.4063 148.75,33.9531 Q149.4063,32.5 150.6875,31.7188 Q151.9688,30.9375 153.8438,30.9375 Q154.7344,30.9375 155.4063,31.125 Q156.0781,31.2969 156.7656,31.6406 L155.9531,33.6563 Q155.3281,33.3438 154.7813,33.2188 Q154.25,33.0938 153.7656,33.0938 Q152.5938,33.0938 151.8906,33.625 Q151.1875,34.1563 150.8906,35.1094 Q150.5938,36.0625 150.5938,37.3281 Q150.5938,39.3438 151.3125,40.3125 Q152.0313,41.2656 153.625,41.2656 Q154.2188,41.2656 154.8438,41.1094 Q155.4688,40.9531 156.2969,40.5781 L156.2969,42.7969 Q155.5625,43.1094 154.7656,43.2656 Q153.9844,43.4219 153.2188,43.4219 Z " fill="#000000"/><text fill="#000000" font-family="sans-serif" font-size="14" lengthAdjust="spacing" textLength="137" x="174.25" y="41.932">CanonicalMnemonic</text><line style="stroke:#181818;stroke-width:0.5;" x1="102.5" x2="350.5" y1="52.5" y2="52.5"/><text fill="#000000" font-family="sans-serif" font-size="14" lengthAdjust="spacing" textLength="120" x="107.5" y="71.4659">mnemonic: String</text><text fill="#000000" font-family="sans-serif" font-size="14" lengthAdjust="spacing" textLength="58" x="107.5" y="90.5339">code: int</text><text fill="#000000" font-family="sans-serif" font-size="14" lengthAdjust="spacing" textLength="238" x="107.5" y="109.6018">nonDeprecatedAliases: String [0..*]</text><text fill="#000000" font-family="sans-serif" font-size="14" lengthAdjust="spacing" textLength="211" x="107.5" y="128.6697">deprecatedAliases: String [0..*]</text><text fill="#000000" font-family="sans-serif" font-size="14" lengthAdjust="spacing" textLength="89" x="107.5" y="147.7376">ucp: int [0..1]</text><text fill="#000000" font-family="sans-serif" font-size="14" lengthAdjust="spacing" textLength="139" x="107.5" y="166.8055">deprecated: boolean</text></g><!--class Mnemonics--><g id="elem_Mnemonics"><rect codeLine="12" fill="#F1F1F1" height="181.4754" id="Mnemonics" rx="2.5" ry="2.5" style="stroke:#181818;stroke-width:0.5;" width="390" x="386.5" y="7"/><ellipse cx="538.25" cy="23" fill="#ADD1B2" rx="11" ry="11" style="stroke:#181818;stroke-width:1.0;"/><path d="M537.7188,29.9219 Q535.9688,29.9219 534.8281,29.1875 Q533.7031,28.4375 533.1406,27.0938 Q532.5938,25.7344 532.5938,23.9375 Q532.5938,21.9063 533.25,20.4531 Q533.9063,19 535.1875,18.2188 Q536.4688,17.4375 538.3438,17.4375 Q539.2344,17.4375 539.9063,17.625 Q540.5781,17.7969 541.2656,18.1406 L540.4531,20.1563 Q539.8281,19.8438 539.2813,19.7188 Q538.75,19.5938 538.2656,19.5938 Q537.0938,19.5938 536.3906,20.125 Q535.6875,20.6563 535.3906,21.6094 Q535.0938,22.5625 535.0938,23.8281 Q535.0938,25.8438 535.8125,26.8125 Q536.5313,27.7656 538.125,27.7656 Q538.7188,27.7656 539.3438,27.6094 Q539.9688,27.4531 540.7969,27.0781 L540.7969,29.2969 Q540.0625,29.6094 539.2656,29.7656 Q538.4844,29.9219 537.7188,29.9219 Z " fill="#000000"/><text fill="#000000" font-family="sans-serif" font-size="14" lengthAdjust="spacing" textLength="78" x="558.75" y="28.432">Mnemonics</text><line style="stroke:#181818;stroke-width:0.5;" x1="387.5" x2="775.5" y1="39" y2="39"/><text fill="#000000" font-family="sans-serif" font-size="14" lengthAdjust="spacing" textLength="378" x="392.5" y="57.9659">byKeysymMnemonic: Map&lt;String, CanonicalMnemonic&gt;</text><text fill="#000000" font-family="sans-serif" font-size="14" lengthAdjust="spacing" textLength="363" x="392.5" y="77.0339">byKeysymCode: BiMap&lt;Integer, CanonicalMnemonic&gt;</text><text fill="#000000" font-family="sans-serif" font-size="14" lengthAdjust="spacing" textLength="304" x="392.5" y="96.1018">byUcp: BiMap&lt;Integer, CanonicalMnemonic&gt;</text><line style="stroke:#181818;stroke-width:0.5;" x1="387.5" x2="775.5" y1="104.2038" y2="104.2038"/><text fill="#000000" font-family="sans-serif" font-size="14" lengthAdjust="spacing" text-decoration="underline" textLength="131" x="392.5" y="123.1697">latest(): Mnemonics</text><text fill="#000000" font-family="sans-serif" font-size="14" lengthAdjust="spacing" text-decoration="underline" textLength="373" x="392.5" y="142.2376">fromCanonicals(Set&lt;CanonicalMnemonic&gt;): Mnemonics</text><text fill="#000000" font-family="sans-serif" font-size="14" lengthAdjust="spacing" text-decoration="underline" textLength="314" x="392.5" y="161.3055">fromSource(keysyms: CharSource): Mnemonics</text><text fill="#000000" font-family="sans-serif" font-size="14" lengthAdjust="spacing" textLength="223" x="392.5" y="180.3734">withoutDeprecated(): Mnemonics</text></g><!--class UcpByCode--><g id="elem_UcpByCode"><rect codeLine="22" fill="#F1F1F1" height="162.4075" id="UcpByCode" rx="2.5" ry="2.5" style="stroke:#181818;stroke-width:0.5;" width="439" x="7" y="248"/><ellipse cx="184.25" cy="264" fill="#ADD1B2" rx="11" ry="11" style="stroke:#181818;stroke-width:1.0;"/><path d="M183.7188,270.9219 Q181.9688,270.9219 180.8281,270.1875 Q179.7031,269.4375 179.1406,268.0938 Q178.5938,266.7344 178.5938,264.9375 Q178.5938,262.9063 179.25,261.4531 Q179.9063,260 181.1875,259.2188 Q182.4688,258.4375 184.3438,258.4375 Q185.2344,258.4375 185.9063,258.625 Q186.5781,258.7969 187.2656,259.1406 L186.4531,261.1563 Q185.8281,260.8438 185.2813,260.7188 Q184.75,260.5938 184.2656,260.5938 Q183.0938,260.5938 182.3906,261.125 Q181.6875,261.6563 181.3906,262.6094 Q181.0938,263.5625 181.0938,264.8281 Q181.0938,266.8438 181.8125,267.8125 Q182.5313,268.7656 184.125,268.7656 Q184.7188,268.7656 185.3438,268.6094 Q185.9688,268.4531 186.7969,268.0781 L186.7969,270.2969 Q186.0625,270.6094 185.2656,270.7656 Q184.4844,270.9219 183.7188,270.9219 Z " fill="#000000"/><text fill="#000000" font-family="sans-serif" font-size="14" lengthAdjust="spacing" textLength="76" x="204.75" y="269.432">UcpByCode</text><line style="stroke:#181818;stroke-width:0.5;" x1="8" x2="445" y1="280" y2="280"/><text fill="#000000" font-family="sans-serif" font-size="14" lengthAdjust="spacing" textLength="172" x="13" y="298.9659">domainOfCodes: int [0..*]</text><text fill="#000000" font-family="sans-serif" font-size="14" lengthAdjust="spacing" textLength="180" x="13" y="318.0339">coDomainOfUcps: int [0..*]</text><line style="stroke:#181818;stroke-width:0.5;" x1="8" x2="445" y1="326.1358" y2="326.1358"/><text fill="#000000" font-family="sans-serif" font-size="14" lengthAdjust="spacing" text-decoration="underline" textLength="142" x="13" y="345.1018">implicit(): UcpByCode</text><text fill="#000000" font-family="sans-serif" font-size="14" lengthAdjust="spacing" text-decoration="underline" textLength="427" x="13" y="364.1697">implicitAndExplicit(explicit: Map&lt;Integer, Integer&gt;): UcpByCode</text><text fill="#000000" font-family="sans-serif" font-size="14" lengthAdjust="spacing" text-decoration="underline" textLength="351" x="13" y="383.2376">implicitAndExplicit(explicit: Mnemonics): UcpByCode</text><text fill="#000000" font-family="sans-serif" font-size="14" lengthAdjust="spacing" textLength="117" x="13" y="402.3055">ucp(code: int): int</text></g><!--SRC=[dLBBJiCm4BpdArOzfGXLS8sgIctA0Q68GyG9SN3iRMCHsv7j2A8g_uxpgDEc512tzUxCPdOoEMS8A4fRWq2HeJP1G0jY3CnY8fNab1I9HD5MCpW4069uHP1QpUNUjQXY606NrjMEiyLI8oKMsRhWnA0vGk7rRh6uUNCezZkaecMti-lSdvCYo9GgaCYWyNAFAaqlys0iiPmsK3Y2iU4y0eyu7U-q4lvI4wPebnU7htuYfwhI5CDth4qjt1rnJdJVcx2o-gd39Dx0X9JB_knRkFpe2INk3Dxmbl0eBUvHNsMyjBxz1Vh1RQugE_wjSuz6Pzt6JTrAc3ZBHLbmoZjlFUOxm5goXyy1YqFHN-yL3iNgdwkEgYTqfWJXyddNFisOfYvVL6s7gMDCXovyeK_rlCzs4tm1]--></g></svg>