<?xml version="1.0" encoding="UTF-8" standalone="no"?><svg xmlns="http://www.w3.org/2000/svg" xmlns:xlink="http://www.w3.org/1999/xlink" contentScriptType="application/ecmascript" contentStyleType="text/css" height="361px" preserveAspectRatio="none" style="width:898px;height:361px;" version="1.1" viewBox="0 0 898 361" width="898px" zoomAndPan="magnify"><defs><filter height="300%" id="fr3eqtxw5rfht" width="300%" x="-1" y="-1"><feGaussianBlur result="blurOut" stdDeviation="2.0"/><feColorMatrix in="blurOut" result="blurOut2" type="matrix" values="0 0 0 0 0 0 0 0 0 0 0 0 0 0 0 0 0 0 .4 0"/><feOffset dx="4.0" dy="4.0" in="blurOut2" result="blurOut3"/><feBlend in="SourceGraphic" in2="blurOut3" mode="normal"/></filter></defs><g><!--MD5=[7a3cf1c82e1643905d64c690a8b64af1]
class CanonicalMnemonic--><rect fill="#FEFECE" filter="url(#fr3eqtxw5rfht)" height="129.8913" id="CanonicalMnemonic" style="stroke: #A80036; stroke-width: 1.5;" width="195" x="6" y="221"/><ellipse cx="43.05" cy="237" fill="#ADD1B2" rx="11" ry="11" style="stroke: #A80036; stroke-width: 1.0;"/><path d="M42.5188,243.9219 Q40.7688,243.9219 39.6281,243.1875 Q38.5031,242.4375 37.9406,241.0938 Q37.3938,239.7344 37.3938,237.9375 Q37.3938,235.9063 38.05,234.4531 Q38.7063,233 39.9875,232.2188 Q41.2688,231.4375 43.1438,231.4375 Q44.0344,231.4375 44.7063,231.625 Q45.3781,231.7969 46.0656,232.1406 L45.2531,234.1563 Q44.6281,233.8438 44.0813,233.7188 Q43.55,233.5938 43.0656,233.5938 Q41.8938,233.5938 41.1906,234.125 Q40.4875,234.6563 40.1906,235.6094 Q39.8938,236.5625 39.8938,237.8281 Q39.8938,239.8438 40.6125,240.8125 Q41.3313,241.7656 42.925,241.7656 Q43.5188,241.7656 44.1438,241.6094 Q44.7688,241.4531 45.5969,241.0781 L45.5969,243.2969 Q44.8625,243.6094 44.0656,243.7656 Q43.2844,243.9219 42.5188,243.9219 Z "/><text fill="#000000" font-family="sans-serif" font-size="12" lengthAdjust="spacingAndGlyphs" textLength="114" x="61.95" y="241.656">CanonicalMnemonic</text><line style="stroke: #A80036; stroke-width: 1.5;" x1="7" x2="200" y1="253" y2="253"/><text fill="#000000" font-family="sans-serif" font-size="11" lengthAdjust="spacingAndGlyphs" textLength="93" x="12" y="268.7589">mnemonic: String</text><text fill="#000000" font-family="sans-serif" font-size="11" lengthAdjust="spacingAndGlyphs" textLength="45" x="12" y="283.7408">code: int</text><text fill="#000000" font-family="sans-serif" font-size="11" lengthAdjust="spacingAndGlyphs" textLength="183" x="12" y="298.7227">nonDeprecatedAliases: String [0..*]</text><text fill="#000000" font-family="sans-serif" font-size="11" lengthAdjust="spacingAndGlyphs" textLength="161" x="12" y="313.7046">deprecatedAliases: String [0..*]</text><text fill="#000000" font-family="sans-serif" font-size="11" lengthAdjust="spacingAndGlyphs" textLength="68" x="12" y="328.6865">ucp: int [0..1]</text><text fill="#000000" font-family="sans-serif" font-size="11" lengthAdjust="spacingAndGlyphs" textLength="108" x="12" y="343.6684">deprecated: boolean</text><!--MD5=[0aa49f549a1843a05a805df59d094073]
class Mnemonics--><rect fill="#FEFECE" filter="url(#fr3eqtxw5rfht)" height="152.8732" id="Mnemonics" style="stroke: #A80036; stroke-width: 1.5;" width="305" x="296" y="8"/><ellipse cx="411.75" cy="24" fill="#ADD1B2" rx="11" ry="11" style="stroke: #A80036; stroke-width: 1.0;"/><path d="M411.2188,30.9219 Q409.4688,30.9219 408.3281,30.1875 Q407.2031,29.4375 406.6406,28.0938 Q406.0938,26.7344 406.0938,24.9375 Q406.0938,22.9063 406.75,21.4531 Q407.4063,20 408.6875,19.2188 Q409.9688,18.4375 411.8438,18.4375 Q412.7344,18.4375 413.4063,18.625 Q414.0781,18.7969 414.7656,19.1406 L413.9531,21.1563 Q413.3281,20.8438 412.7813,20.7188 Q412.25,20.5938 411.7656,20.5938 Q410.5938,20.5938 409.8906,21.125 Q409.1875,21.6563 408.8906,22.6094 Q408.5938,23.5625 408.5938,24.8281 Q408.5938,26.8438 409.3125,27.8125 Q410.0313,28.7656 411.625,28.7656 Q412.2188,28.7656 412.8438,28.6094 Q413.4688,28.4531 414.2969,28.0781 L414.2969,30.2969 Q413.5625,30.6094 412.7656,30.7656 Q411.9844,30.9219 411.2188,30.9219 Z "/><text fill="#000000" font-family="sans-serif" font-size="12" lengthAdjust="spacingAndGlyphs" textLength="65" x="432.25" y="28.656">Mnemonics</text><line style="stroke: #A80036; stroke-width: 1.5;" x1="297" x2="600" y1="40" y2="40"/><text fill="#000000" font-family="sans-serif" font-size="11" lengthAdjust="spacingAndGlyphs" textLength="293" x="302" y="55.7589">byKeysymMnemonic: Map&lt;String, CanonicalMnemonic&gt;</text><text fill="#000000" font-family="sans-serif" font-size="11" lengthAdjust="spacingAndGlyphs" textLength="282" x="302" y="70.7408">byKeysymCode: BiMap&lt;Integer, CanonicalMnemonic&gt;</text><text fill="#000000" font-family="sans-serif" font-size="11" lengthAdjust="spacingAndGlyphs" textLength="235" x="302" y="85.7227">byUcp: BiMap&lt;Integer, CanonicalMnemonic&gt;</text><line style="stroke: #A80036; stroke-width: 1.5;" x1="297" x2="600" y1="92.9457" y2="92.9457"/><text fill="#000000" font-family="sans-serif" font-size="11" lengthAdjust="spacingAndGlyphs" text-decoration="underline" textLength="100" x="302" y="108.7046">latest(): Mnemonics</text><text fill="#000000" font-family="sans-serif" font-size="11" lengthAdjust="spacingAndGlyphs" text-decoration="underline" textLength="288" x="302" y="123.6865">fromCanonicals(Set&lt;CanonicalMnemonic&gt;): Mnemonics</text><text fill="#000000" font-family="sans-serif" font-size="11" lengthAdjust="spacingAndGlyphs" text-decoration="underline" textLength="245" x="302" y="138.6684">fromSource(keysyms: CharSource): Mnemonics</text><text fill="#000000" font-family="sans-serif" font-size="11" lengthAdjust="spacingAndGlyphs" textLength="173" x="302" y="153.6502">withoutDeprecated(): Mnemonics</text><!--MD5=[f3d634e54491b3b12ec5ff47ef6230bd]
class CanonicalKeysymEntry--><rect fill="#FEFECE" filter="url(#fr3eqtxw5rfht)" height="32" id="CanonicalKeysymEntry" style="stroke: #A80036; stroke-width: 1.5;" width="154" x="106.5" y="68.5"/><ellipse cx="121.5" cy="84.5" fill="#B4A7E5" rx="11" ry="11" style="stroke: #A80036; stroke-width: 1.0;"/><path d="M117.5313,91 L117.5313,89.2969 L119.8906,89.0313 L119.8906,80.8281 L117.5313,80.5625 L117.5313,78.8594 L124.6719,78.8594 L124.6719,80.5625 L122.25,80.8281 L122.25,89.0313 L124.6719,89.2969 L124.6719,91 L117.5313,91 Z "/><text fill="#000000" font-family="sans-serif" font-size="12" font-style="italic" lengthAdjust="spacingAndGlyphs" textLength="122" x="135.5" y="89.156">CanonicalKeysymEntry</text><!--MD5=[8f6db691d40053f8dd3d69a1c6f49ce9]
class Ucp--><rect fill="#FEFECE" filter="url(#fr3eqtxw5rfht)" height="32" id="Ucp" style="stroke: #A80036; stroke-width: 1.5;" width="54" x="236.5" y="270"/><ellipse cx="251.5" cy="286" fill="#ADD1B2" rx="11" ry="11" style="stroke: #A80036; stroke-width: 1.0;"/><path d="M250.9688,292.9219 Q249.2188,292.9219 248.0781,292.1875 Q246.9531,291.4375 246.3906,290.0938 Q245.8438,288.7344 245.8438,286.9375 Q245.8438,284.9063 246.5,283.4531 Q247.1563,282 248.4375,281.2188 Q249.7188,280.4375 251.5938,280.4375 Q252.4844,280.4375 253.1563,280.625 Q253.8281,280.7969 254.5156,281.1406 L253.7031,283.1563 Q253.0781,282.8438 252.5313,282.7188 Q252,282.5938 251.5156,282.5938 Q250.3438,282.5938 249.6406,283.125 Q248.9375,283.6563 248.6406,284.6094 Q248.3438,285.5625 248.3438,286.8281 Q248.3438,288.8438 249.0625,289.8125 Q249.7813,290.7656 251.375,290.7656 Q251.9688,290.7656 252.5938,290.6094 Q253.2188,290.4531 254.0469,290.0781 L254.0469,292.2969 Q253.3125,292.6094 252.5156,292.7656 Q251.7344,292.9219 250.9688,292.9219 Z "/><text fill="#000000" font-family="sans-serif" font-size="12" lengthAdjust="spacingAndGlyphs" textLength="22" x="265.5" y="290.656">Ucp</text><!--MD5=[b3ced0cdbc9a1ffd417051d32e121b07]
class CanonicalKeyboardMap--><rect fill="#FEFECE" filter="url(#fr3eqtxw5rfht)" height="54.9819" id="CanonicalKeyboardMap" style="stroke: #A80036; stroke-width: 1.5;" width="251" x="636" y="57"/><ellipse cx="690.75" cy="73" fill="#ADD1B2" rx="11" ry="11" style="stroke: #A80036; stroke-width: 1.0;"/><path d="M690.2188,79.9219 Q688.4688,79.9219 687.3281,79.1875 Q686.2031,78.4375 685.6406,77.0938 Q685.0938,75.7344 685.0938,73.9375 Q685.0938,71.9063 685.75,70.4531 Q686.4063,69 687.6875,68.2188 Q688.9688,67.4375 690.8438,67.4375 Q691.7344,67.4375 692.4063,67.625 Q693.0781,67.7969 693.7656,68.1406 L692.9531,70.1563 Q692.3281,69.8438 691.7813,69.7188 Q691.25,69.5938 690.7656,69.5938 Q689.5938,69.5938 688.8906,70.125 Q688.1875,70.6563 687.8906,71.6094 Q687.5938,72.5625 687.5938,73.8281 Q687.5938,75.8438 688.3125,76.8125 Q689.0313,77.7656 690.625,77.7656 Q691.2188,77.7656 691.8438,77.6094 Q692.4688,77.4531 693.2969,77.0781 L693.2969,79.2969 Q692.5625,79.6094 691.7656,79.7656 Q690.9844,79.9219 690.2188,79.9219 Z "/><text fill="#000000" font-family="sans-serif" font-size="12" lengthAdjust="spacingAndGlyphs" textLength="133" x="711.25" y="77.656">CanonicalKeyboardMap</text><line style="stroke: #A80036; stroke-width: 1.5;" x1="637" x2="886" y1="89" y2="89"/><text fill="#000000" font-family="sans-serif" font-size="11" lengthAdjust="spacingAndGlyphs" textLength="239" x="642" y="104.7589">entries(xKeyName: String): List&lt;KeysymEntry&gt;</text><!--MD5=[4f309d5be1488748b5ccb4dcd4f3d9ea]
reverse link CanonicalKeysymEntry to CanonicalMnemonic--><path d="M169.79,119.69 C158.7,147.35 142.77,187.07 129.31,220.65 " fill="none" id="CanonicalKeysymEntry&lt;-CanonicalMnemonic" style="stroke: #A80036; stroke-width: 1.0;"/><polygon fill="none" points="163.41,116.78,177.36,100.82,176.41,121.99,163.41,116.78" style="stroke: #A80036; stroke-width: 1.0;"/><!--MD5=[84e22d4e0d681d78677b9a7ca0dba20d]
reverse link CanonicalKeysymEntry to Ucp--><path d="M197.18,119.63 C214.81,163.58 244.69,238.1 257.44,269.9 " fill="none" id="CanonicalKeysymEntry&lt;-Ucp" style="stroke: #A80036; stroke-width: 1.0;"/><polygon fill="none" points="190.59,121.99,189.64,100.82,203.59,116.78,190.59,121.99" style="stroke: #A80036; stroke-width: 1.0;"/><!--MD5=[865029ce2ca35c9d4a76ea1884773400]
@startuml Mnemonics
hide empty members

class "CanonicalMnemonic" {
  mnemonic: String
  code: int
  nonDeprecatedAliases: String [0..*]
  deprecatedAliases: String [0..*]
  ucp: int [0..1]
  deprecated: boolean
}

class "Mnemonics" {
  {static} latest(): Mnemonics
  {static} fromCanonicals(Set<CanonicalMnemonic>): Mnemonics
  {static} fromSource(keysyms: CharSource): Mnemonics
  byKeysymMnemonic: Map<String, CanonicalMnemonic>
  byKeysymCode: BiMap<Integer, CanonicalMnemonic>
  byUcp: BiMap<Integer, CanonicalMnemonic>
  withoutDeprecated(): Mnemonics
}

interface "CanonicalKeysymEntry" {}
"CanonicalKeysymEntry" <|- - "CanonicalMnemonic"
"CanonicalKeysymEntry" <|- - "Ucp"

class "CanonicalKeyboardMap" {
  entries(xKeyName: String): List<KeysymEntry>
}

@enduml

PlantUML version 1.2020.02(Sun Mar 01 11:22:07 CET 2020)
(GPL source distribution)
Java Runtime: OpenJDK Runtime Environment
JVM: OpenJDK 64-Bit Server VM
Java Version: 17.0.11+9-Debian-1deb12u1
Operating System: Linux
Default Encoding: UTF-8
Language: fr
Country: FR
--></g></svg>