<?xml version="1.0" encoding="us-ascii" standalone="no"?><svg xmlns="http://www.w3.org/2000/svg" xmlns:xlink="http://www.w3.org/1999/xlink" contentStyleType="text/css" height="306px" preserveAspectRatio="none" style="width:1394px;height:306px;background:#FFFFFF;" version="1.1" viewBox="0 0 1394 306" width="1394px" zoomAndPan="magnify"><defs/><g><!--class Representation--><g id="elem_Representation"><rect codeLine="3" fill="#F1F1F1" height="32" id="Representation" rx="2.5" ry="2.5" style="stroke:#181818;stroke-width:0.5;" width="135" x="629.5" y="39.5"/><ellipse cx="644.5" cy="55.5" fill="#ADD1B2" rx="11" ry="11" style="stroke:#181818;stroke-width:1.0;"/><path d="M643.9688,62.4219 Q642.2188,62.4219 641.0781,61.6875 Q639.9531,60.9375 639.3906,59.5938 Q638.8438,58.2344 638.8438,56.4375 Q638.8438,54.4063 639.5,52.9531 Q640.1563,51.5 641.4375,50.7188 Q642.7188,49.9375 644.5938,49.9375 Q645.4844,49.9375 646.1563,50.125 Q646.8281,50.2969 647.5156,50.6406 L646.7031,52.6563 Q646.0781,52.3438 645.5313,52.2188 Q645,52.0938 644.5156,52.0938 Q643.3438,52.0938 642.6406,52.625 Q641.9375,53.1563 641.6406,54.1094 Q641.3438,55.0625 641.3438,56.3281 Q641.3438,58.3438 642.0625,59.3125 Q642.7813,60.2656 644.375,60.2656 Q644.9688,60.2656 645.5938,60.1094 Q646.2188,59.9531 647.0469,59.5781 L647.0469,61.7969 Q646.3125,62.1094 645.5156,62.2656 Q644.7344,62.4219 643.9688,62.4219 Z " fill="#000000"/><text fill="#000000" font-family="sans-serif" font-size="14" lengthAdjust="spacing" textLength="103" x="658.5" y="60.932">Representation</text></g><!--class StringRepresentation--><g id="elem_StringRepresentation"><rect codeLine="5" fill="#F1F1F1" height="59.0679" id="StringRepresentation" rx="2.5" ry="2.5" style="stroke:#181818;stroke-width:0.5;" width="176" x="440" y="202"/><ellipse cx="455" cy="218" fill="#ADD1B2" rx="11" ry="11" style="stroke:#181818;stroke-width:1.0;"/><path d="M454.4688,224.9219 Q452.7188,224.9219 451.5781,224.1875 Q450.4531,223.4375 449.8906,222.0938 Q449.3438,220.7344 449.3438,218.9375 Q449.3438,216.9063 450,215.4531 Q450.6563,214 451.9375,213.2188 Q453.2188,212.4375 455.0938,212.4375 Q455.9844,212.4375 456.6563,212.625 Q457.3281,212.7969 458.0156,213.1406 L457.2031,215.1563 Q456.5781,214.8438 456.0313,214.7188 Q455.5,214.5938 455.0156,214.5938 Q453.8438,214.5938 453.1406,215.125 Q452.4375,215.6563 452.1406,216.6094 Q451.8438,217.5625 451.8438,218.8281 Q451.8438,220.8438 452.5625,221.8125 Q453.2813,222.7656 454.875,222.7656 Q455.4688,222.7656 456.0938,222.6094 Q456.7188,222.4531 457.5469,222.0781 L457.5469,224.2969 Q456.8125,224.6094 456.0156,224.7656 Q455.2344,224.9219 454.4688,224.9219 Z " fill="#000000"/><text fill="#000000" font-family="sans-serif" font-size="14" lengthAdjust="spacing" textLength="144" x="469" y="223.432">StringRepresentation</text><line style="stroke:#181818;stroke-width:0.5;" x1="441" x2="615" y1="234" y2="234"/><text fill="#000000" font-family="sans-serif" font-size="14" lengthAdjust="spacing" textLength="89" x="446" y="252.9659">string: String</text></g><!--class SvgRepresentation--><g id="elem_SvgRepresentation"><rect codeLine="8" fill="#F1F1F1" height="59.0679" id="SvgRepresentation" rx="2.5" ry="2.5" style="stroke:#181818;stroke-width:0.5;" width="159" x="650.5" y="202"/><ellipse cx="665.5" cy="218" fill="#ADD1B2" rx="11" ry="11" style="stroke:#181818;stroke-width:1.0;"/><path d="M664.9688,224.9219 Q663.2188,224.9219 662.0781,224.1875 Q660.9531,223.4375 660.3906,222.0938 Q659.8438,220.7344 659.8438,218.9375 Q659.8438,216.9063 660.5,215.4531 Q661.1563,214 662.4375,213.2188 Q663.7188,212.4375 665.5938,212.4375 Q666.4844,212.4375 667.1563,212.625 Q667.8281,212.7969 668.5156,213.1406 L667.7031,215.1563 Q667.0781,214.8438 666.5313,214.7188 Q666,214.5938 665.5156,214.5938 Q664.3438,214.5938 663.6406,215.125 Q662.9375,215.6563 662.6406,216.6094 Q662.3438,217.5625 662.3438,218.8281 Q662.3438,220.8438 663.0625,221.8125 Q663.7813,222.7656 665.375,222.7656 Q665.9688,222.7656 666.5938,222.6094 Q667.2188,222.4531 668.0469,222.0781 L668.0469,224.2969 Q667.3125,224.6094 666.5156,224.7656 Q665.7344,224.9219 664.9688,224.9219 Z " fill="#000000"/><text fill="#000000" font-family="sans-serif" font-size="14" lengthAdjust="spacing" textLength="127" x="679.5" y="223.432">SvgRepresentation</text><line style="stroke:#181818;stroke-width:0.5;" x1="651.5" x2="808.5" y1="234" y2="234"/><text fill="#000000" font-family="sans-serif" font-size="14" lengthAdjust="spacing" textLength="100" x="656.5" y="252.9659">svg: Document</text></g><!--class XKeyNamesRepresenter--><g id="elem_XKeyNamesRepresenter"><rect codeLine="14" fill="#F1F1F1" height="59.0679" id="XKeyNamesRepresenter" rx="2.5" ry="2.5" style="stroke:#181818;stroke-width:0.5;" width="363" x="934.5" y="26"/><ellipse cx="1038.25" cy="42" fill="#B4A7E5" rx="11" ry="11" style="stroke:#181818;stroke-width:1.0;"/><path d="M1034.2813,48.5 L1034.2813,46.7969 L1036.6406,46.5313 L1036.6406,38.3281 L1034.2813,38.0625 L1034.2813,36.3594 L1041.4219,36.3594 L1041.4219,38.0625 L1039,38.3281 L1039,46.5313 L1041.4219,46.7969 L1041.4219,48.5 L1034.2813,48.5 Z " fill="#000000"/><text fill="#000000" font-family="sans-serif" font-size="14" font-style="italic" lengthAdjust="spacing" textLength="147" x="1058.75" y="47.432">XKeyNamesRepresenter</text><line style="stroke:#181818;stroke-width:0.5;" x1="935.5" x2="1296.5" y1="58" y2="58"/><text fill="#000000" font-family="sans-serif" font-size="14" lengthAdjust="spacing" textLength="351" x="940.5" y="76.9659">representations(name: String): Representation [0..*]</text></g><!--class VisibleKeyboardMap--><g id="elem_VisibleKeyboardMap"><rect codeLine="18" fill="#F1F1F1" height="78.1358" id="VisibleKeyboardMap" rx="2.5" ry="2.5" style="stroke:#181818;stroke-width:0.5;" width="543" x="844.5" y="192.5"/><ellipse cx="1042.75" cy="208.5" fill="#ADD1B2" rx="11" ry="11" style="stroke:#181818;stroke-width:1.0;"/><path d="M1042.2188,215.4219 Q1040.4688,215.4219 1039.3281,214.6875 Q1038.2031,213.9375 1037.6406,212.5938 Q1037.0938,211.2344 1037.0938,209.4375 Q1037.0938,207.4063 1037.75,205.9531 Q1038.4063,204.5 1039.6875,203.7188 Q1040.9688,202.9375 1042.8438,202.9375 Q1043.7344,202.9375 1044.4063,203.125 Q1045.0781,203.2969 1045.7656,203.6406 L1044.9531,205.6563 Q1044.3281,205.3438 1043.7813,205.2188 Q1043.25,205.0938 1042.7656,205.0938 Q1041.5938,205.0938 1040.8906,205.625 Q1040.1875,206.1563 1039.8906,207.1094 Q1039.5938,208.0625 1039.5938,209.3281 Q1039.5938,211.3438 1040.3125,212.3125 Q1041.0313,213.2656 1042.625,213.2656 Q1043.2188,213.2656 1043.8438,213.1094 Q1044.4688,212.9531 1045.2969,212.5781 L1045.2969,214.7969 Q1044.5625,215.1094 1043.7656,215.2656 Q1042.9844,215.4219 1042.2188,215.4219 Z " fill="#000000"/><text fill="#000000" font-family="sans-serif" font-size="14" lengthAdjust="spacing" textLength="138" x="1063.25" y="213.932">VisibleKeyboardMap</text><line style="stroke:#181818;stroke-width:0.5;" x1="845.5" x2="1386.5" y1="224.5" y2="224.5"/><text fill="#000000" font-family="sans-serif" font-size="14" lengthAdjust="spacing" text-decoration="underline" textLength="531" x="850.5" y="243.4659">from(KeyboardMap, Map&lt;KeysymEntry, Representation&gt;): VisibleKeyboardMap</text><text fill="#000000" font-family="sans-serif" font-size="14" lengthAdjust="spacing" textLength="140" x="850.5" y="262.5339">names(): String [0..*]</text></g><!--class RectangularKey--><g id="elem_RectangularKey"><rect codeLine="24" fill="#F1F1F1" height="97.2038" id="RectangularKey" rx="2.5" ry="2.5" style="stroke:#181818;stroke-width:0.5;" width="138" x="137" y="7"/><ellipse cx="152" cy="23" fill="#ADD1B2" rx="11" ry="11" style="stroke:#181818;stroke-width:1.0;"/><path d="M151.4688,29.9219 Q149.7188,29.9219 148.5781,29.1875 Q147.4531,28.4375 146.8906,27.0938 Q146.3438,25.7344 146.3438,23.9375 Q146.3438,21.9063 147,20.4531 Q147.6563,19 148.9375,18.2188 Q150.2188,17.4375 152.0938,17.4375 Q152.9844,17.4375 153.6563,17.625 Q154.3281,17.7969 155.0156,18.1406 L154.2031,20.1563 Q153.5781,19.8438 153.0313,19.7188 Q152.5,19.5938 152.0156,19.5938 Q150.8438,19.5938 150.1406,20.125 Q149.4375,20.6563 149.1406,21.6094 Q148.8438,22.5625 148.8438,23.8281 Q148.8438,25.8438 149.5625,26.8125 Q150.2813,27.7656 151.875,27.7656 Q152.4688,27.7656 153.0938,27.6094 Q153.7188,27.4531 154.5469,27.0781 L154.5469,29.2969 Q153.8125,29.6094 153.0156,29.7656 Q152.2344,29.9219 151.4688,29.9219 Z " fill="#000000"/><text fill="#000000" font-family="sans-serif" font-size="14" lengthAdjust="spacing" textLength="106" x="166" y="28.432">RectangularKey</text><line style="stroke:#181818;stroke-width:0.5;" x1="138" x2="274" y1="39" y2="39"/><text fill="#000000" font-family="sans-serif" font-size="14" lengthAdjust="spacing" textLength="93" x="143" y="57.9659">topLeftCorner</text><text fill="#000000" font-family="sans-serif" font-size="14" lengthAdjust="spacing" textLength="26" x="143" y="77.0339">size</text><text fill="#000000" font-family="sans-serif" font-size="14" lengthAdjust="spacing" textLength="120" x="143" y="96.1018">xKeyName: String</text></g><!--class RectangularKeyboard--><g id="elem_RectangularKeyboard"><rect codeLine="30" fill="#F1F1F1" height="59.0679" id="RectangularKeyboard" rx="2.5" ry="2.5" style="stroke:#181818;stroke-width:0.5;" width="250" x="310" y="26"/><ellipse cx="357.75" cy="42" fill="#ADD1B2" rx="11" ry="11" style="stroke:#181818;stroke-width:1.0;"/><path d="M357.2188,48.9219 Q355.4688,48.9219 354.3281,48.1875 Q353.2031,47.4375 352.6406,46.0938 Q352.0938,44.7344 352.0938,42.9375 Q352.0938,40.9063 352.75,39.4531 Q353.4063,38 354.6875,37.2188 Q355.9688,36.4375 357.8438,36.4375 Q358.7344,36.4375 359.4063,36.625 Q360.0781,36.7969 360.7656,37.1406 L359.9531,39.1563 Q359.3281,38.8438 358.7813,38.7188 Q358.25,38.5938 357.7656,38.5938 Q356.5938,38.5938 355.8906,39.125 Q355.1875,39.6563 354.8906,40.6094 Q354.5938,41.5625 354.5938,42.8281 Q354.5938,44.8438 355.3125,45.8125 Q356.0313,46.7656 357.625,46.7656 Q358.2188,46.7656 358.8438,46.6094 Q359.4688,46.4531 360.2969,46.0781 L360.2969,48.2969 Q359.5625,48.6094 358.7656,48.7656 Q357.9844,48.9219 357.2188,48.9219 Z " fill="#000000"/><text fill="#000000" font-family="sans-serif" font-size="14" lengthAdjust="spacing" textLength="146" x="378.25" y="47.432">RectangularKeyboard</text><line style="stroke:#181818;stroke-width:0.5;" x1="311" x2="559" y1="58" y2="58"/><text fill="#000000" font-family="sans-serif" font-size="14" lengthAdjust="spacing" textLength="238" x="316" y="76.9659">physicalKeys: RectangularKey [0..*]</text></g><!--class SvgKeyboard--><g id="elem_SvgKeyboard"><rect codeLine="34" fill="#F1F1F1" height="135.3396" id="SvgKeyboard" rx="2.5" ry="2.5" style="stroke:#181818;stroke-width:0.5;" width="398" x="7" y="164"/><ellipse cx="157.75" cy="180" fill="#ADD1B2" rx="11" ry="11" style="stroke:#181818;stroke-width:1.0;"/><path d="M157.2188,186.9219 Q155.4688,186.9219 154.3281,186.1875 Q153.2031,185.4375 152.6406,184.0938 Q152.0938,182.7344 152.0938,180.9375 Q152.0938,178.9063 152.75,177.4531 Q153.4063,176 154.6875,175.2188 Q155.9688,174.4375 157.8438,174.4375 Q158.7344,174.4375 159.4063,174.625 Q160.0781,174.7969 160.7656,175.1406 L159.9531,177.1563 Q159.3281,176.8438 158.7813,176.7188 Q158.25,176.5938 157.7656,176.5938 Q156.5938,176.5938 155.8906,177.125 Q155.1875,177.6563 154.8906,178.6094 Q154.5938,179.5625 154.5938,180.8281 Q154.5938,182.8438 155.3125,183.8125 Q156.0313,184.7656 157.625,184.7656 Q158.2188,184.7656 158.8438,184.6094 Q159.4688,184.4531 160.2969,184.0781 L160.2969,186.2969 Q159.5625,186.6094 158.7656,186.7656 Q157.9844,186.9219 157.2188,186.9219 Z " fill="#000000"/><text fill="#000000" font-family="sans-serif" font-size="14" lengthAdjust="spacing" textLength="88" x="178.25" y="185.432">SvgKeyboard</text><line style="stroke:#181818;stroke-width:0.5;" x1="8" x2="404" y1="196" y2="196"/><text fill="#000000" font-family="sans-serif" font-size="14" lengthAdjust="spacing" text-decoration="underline" textLength="325" x="13" y="214.9659">zonedFrom(RectangularKeyboard): SvgKeyboard</text><text fill="#000000" font-family="sans-serif" font-size="14" lengthAdjust="spacing" text-decoration="underline" textLength="211" x="13" y="234.0339">using(Document): SvgKeyboard</text><text fill="#000000" font-family="sans-serif" font-size="14" lengthAdjust="spacing" textLength="281" x="13" y="253.1018">keyName(zone: RectangleElement): String</text><text fill="#000000" font-family="sans-serif" font-size="14" lengthAdjust="spacing" textLength="193" x="13" y="272.1697">setFontSize(fontSize: double)</text><text fill="#000000" font-family="sans-serif" font-size="14" lengthAdjust="spacing" textLength="386" x="13" y="291.2376">withRepresentations(XKeyNamesRepresenter): Document</text></g><!--reverse link Representation to StringRepresentation--><g id="link_Representation_StringRepresentation"><path codeLine="11" d="M669.7581,84.5512 C641.5681,113.5712 592.05,164.55 555.81,201.86 " fill="none" id="Representation-backto-StringRepresentation" style="stroke:#181818;stroke-width:1.0;"/><polygon fill="none" points="682.3,71.64,665.4543,80.3706,674.0618,88.7319,682.3,71.64" style="stroke:#181818;stroke-width:1.0;"/></g><!--reverse link Representation to SvgRepresentation--><g id="link_Representation_SvgRepresentation"><path codeLine="12" d="M703.2218,89.3252 C708.7218,118.3452 717.49,164.55 724.57,201.86 " fill="none" id="Representation-backto-SvgRepresentation" style="stroke:#181818;stroke-width:1.0;"/><polygon fill="none" points="699.87,71.64,697.3267,90.4424,709.1168,88.2079,699.87,71.64" style="stroke:#181818;stroke-width:1.0;"/></g><!--reverse link XKeyNamesRepresenter to VisibleKeyboardMap--><g id="link_XKeyNamesRepresenter_VisibleKeyboardMap"><path codeLine="22" d="M1116,103.23 C1116,132.48 1116,159.99 1116,192.26 " fill="none" id="XKeyNamesRepresenter-backto-VisibleKeyboardMap" style="stroke:#181818;stroke-width:1.0;stroke-dasharray:7.0,7.0;"/><polygon fill="none" points="1116,85.23,1110,103.23,1122,103.23,1116,85.23" style="stroke:#181818;stroke-width:1.0;"/></g><!--SRC=[TLBBRi8m4BpdAonEIGMePuHwQU7Inm6agXBYO98DiHhRaTUX3PH_xneJI4Yun95tTcPsrfb8W84iRCKao0qO388uvuXii83208Aot0gj1kmG7ElIqXgXjbq0OtYgJ9X7D3fs_V0TOLzqN4gw9tH7TFet6jtHkmlkI0M1K1PCocDWWwzNg3wu1Bo0m7WpfjM5eI9KFKaqOMrIjdeSZn_MvBaUyLEWsEH0z1lDJVBE2qzxGDSH7rbgj0mRvI6ZpvGki98pPKqrlD5u8jKkAr4wPnX6jRchbplJKJ2hX6C6oNhKQxInzDXojIrpRgZk1x2wU8FKFckZmBYbYJtGyNkMQYoxd-MaugcAh48HyzmDxH9jmhg9qYRRxPSezrf1CdTvzaYvNAwTpROIoMTOlxSExjiF53hsYxiSPZdKS3yeHG1shfLTKX9XUlwPi4INb6j4zHzXiyNDS-fRJTHw_Vy0]--></g></svg>