<?xml version="1.0" encoding="us-ascii" standalone="no"?><svg xmlns="http://www.w3.org/2000/svg" xmlns:xlink="http://www.w3.org/1999/xlink" contentStyleType="text/css" height="525px" preserveAspectRatio="none" style="width:980px;height:525px;background:#FFFFFF;" version="1.1" viewBox="0 0 980 525" width="980px" zoomAndPan="magnify"><defs/><g><!--class Representation--><g id="elem_Representation"><rect codeLine="4" fill="#F1F1F1" height="32" id="Representation" rx="2.5" ry="2.5" style="stroke:#181818;stroke-width:0.5;" width="135" x="121" y="181"/><ellipse cx="136" cy="197" fill="#ADD1B2" rx="11" ry="11" style="stroke:#181818;stroke-width:1.0;"/><path d="M135.4688,203.9219 Q133.7188,203.9219 132.5781,203.1875 Q131.4531,202.4375 130.8906,201.0938 Q130.3438,199.7344 130.3438,197.9375 Q130.3438,195.9063 131,194.4531 Q131.6563,193 132.9375,192.2188 Q134.2188,191.4375 136.0938,191.4375 Q136.9844,191.4375 137.6563,191.625 Q138.3281,191.7969 139.0156,192.1406 L138.2031,194.1563 Q137.5781,193.8438 137.0313,193.7188 Q136.5,193.5938 136.0156,193.5938 Q134.8438,193.5938 134.1406,194.125 Q133.4375,194.6563 133.1406,195.6094 Q132.8438,196.5625 132.8438,197.8281 Q132.8438,199.8438 133.5625,200.8125 Q134.2813,201.7656 135.875,201.7656 Q136.4688,201.7656 137.0938,201.6094 Q137.7188,201.4531 138.5469,201.0781 L138.5469,203.2969 Q137.8125,203.6094 137.0156,203.7656 Q136.2344,203.9219 135.4688,203.9219 Z " fill="#000000"/><text fill="#000000" font-family="sans-serif" font-size="14" lengthAdjust="spacing" textLength="103" x="150" y="202.432">Representation</text></g><!--class StringRepresentation--><g id="elem_StringRepresentation"><rect codeLine="6" fill="#F1F1F1" height="59.0679" id="StringRepresentation" rx="2.5" ry="2.5" style="stroke:#181818;stroke-width:0.5;" width="176" x="613.5" y="120.5"/><ellipse cx="628.5" cy="136.5" fill="#ADD1B2" rx="11" ry="11" style="stroke:#181818;stroke-width:1.0;"/><path d="M627.9688,143.4219 Q626.2188,143.4219 625.0781,142.6875 Q623.9531,141.9375 623.3906,140.5938 Q622.8438,139.2344 622.8438,137.4375 Q622.8438,135.4063 623.5,133.9531 Q624.1563,132.5 625.4375,131.7188 Q626.7188,130.9375 628.5938,130.9375 Q629.4844,130.9375 630.1563,131.125 Q630.8281,131.2969 631.5156,131.6406 L630.7031,133.6563 Q630.0781,133.3438 629.5313,133.2188 Q629,133.0938 628.5156,133.0938 Q627.3438,133.0938 626.6406,133.625 Q625.9375,134.1563 625.6406,135.1094 Q625.3438,136.0625 625.3438,137.3281 Q625.3438,139.3438 626.0625,140.3125 Q626.7813,141.2656 628.375,141.2656 Q628.9688,141.2656 629.5938,141.1094 Q630.2188,140.9531 631.0469,140.5781 L631.0469,142.7969 Q630.3125,143.1094 629.5156,143.2656 Q628.7344,143.4219 627.9688,143.4219 Z " fill="#000000"/><text fill="#000000" font-family="sans-serif" font-size="14" lengthAdjust="spacing" textLength="144" x="642.5" y="141.932">StringRepresentation</text><line style="stroke:#181818;stroke-width:0.5;" x1="614.5" x2="788.5" y1="152.5" y2="152.5"/><text fill="#000000" font-family="sans-serif" font-size="14" lengthAdjust="spacing" textLength="89" x="619.5" y="171.4659">string: String</text></g><!--class SvgRepresentation--><g id="elem_SvgRepresentation"><rect codeLine="9" fill="#F1F1F1" height="59.0679" id="SvgRepresentation" rx="2.5" ry="2.5" style="stroke:#181818;stroke-width:0.5;" width="159" x="622" y="214.5"/><ellipse cx="637" cy="230.5" fill="#ADD1B2" rx="11" ry="11" style="stroke:#181818;stroke-width:1.0;"/><path d="M636.4688,237.4219 Q634.7188,237.4219 633.5781,236.6875 Q632.4531,235.9375 631.8906,234.5938 Q631.3438,233.2344 631.3438,231.4375 Q631.3438,229.4063 632,227.9531 Q632.6563,226.5 633.9375,225.7188 Q635.2188,224.9375 637.0938,224.9375 Q637.9844,224.9375 638.6563,225.125 Q639.3281,225.2969 640.0156,225.6406 L639.2031,227.6563 Q638.5781,227.3438 638.0313,227.2188 Q637.5,227.0938 637.0156,227.0938 Q635.8438,227.0938 635.1406,227.625 Q634.4375,228.1563 634.1406,229.1094 Q633.8438,230.0625 633.8438,231.3281 Q633.8438,233.3438 634.5625,234.3125 Q635.2813,235.2656 636.875,235.2656 Q637.4688,235.2656 638.0938,235.1094 Q638.7188,234.9531 639.5469,234.5781 L639.5469,236.7969 Q638.8125,237.1094 638.0156,237.2656 Q637.2344,237.4219 636.4688,237.4219 Z " fill="#000000"/><text fill="#000000" font-family="sans-serif" font-size="14" lengthAdjust="spacing" textLength="127" x="651" y="235.932">SvgRepresentation</text><line style="stroke:#181818;stroke-width:0.5;" x1="623" x2="780" y1="246.5" y2="246.5"/><text fill="#000000" font-family="sans-serif" font-size="14" lengthAdjust="spacing" textLength="100" x="628" y="265.4659">svg: Document</text></g><!--class XKeyNamesRepresenter--><g id="elem_XKeyNamesRepresenter"><rect codeLine="15" fill="#F1F1F1" height="59.0679" id="XKeyNamesRepresenter" rx="2.5" ry="2.5" style="stroke:#181818;stroke-width:0.5;" width="363" x="7" y="16.5"/><ellipse cx="110.75" cy="32.5" fill="#B4A7E5" rx="11" ry="11" style="stroke:#181818;stroke-width:1.0;"/><path d="M106.7813,39 L106.7813,37.2969 L109.1406,37.0313 L109.1406,28.8281 L106.7813,28.5625 L106.7813,26.8594 L113.9219,26.8594 L113.9219,28.5625 L111.5,28.8281 L111.5,37.0313 L113.9219,37.2969 L113.9219,39 L106.7813,39 Z " fill="#000000"/><text fill="#000000" font-family="sans-serif" font-size="14" font-style="italic" lengthAdjust="spacing" textLength="147" x="131.25" y="37.932">XKeyNamesRepresenter</text><line style="stroke:#181818;stroke-width:0.5;" x1="8" x2="369" y1="48.5" y2="48.5"/><text fill="#000000" font-family="sans-serif" font-size="14" lengthAdjust="spacing" textLength="351" x="13" y="67.4659">representations(name: String): Representation [0..*]</text></g><!--class VisibleKeyboardMap--><g id="elem_VisibleKeyboardMap"><rect codeLine="19" fill="#F1F1F1" height="78.1358" id="VisibleKeyboardMap" rx="2.5" ry="2.5" style="stroke:#181818;stroke-width:0.5;" width="543" x="430" y="7"/><ellipse cx="628.25" cy="23" fill="#ADD1B2" rx="11" ry="11" style="stroke:#181818;stroke-width:1.0;"/><path d="M627.7188,29.9219 Q625.9688,29.9219 624.8281,29.1875 Q623.7031,28.4375 623.1406,27.0938 Q622.5938,25.7344 622.5938,23.9375 Q622.5938,21.9063 623.25,20.4531 Q623.9063,19 625.1875,18.2188 Q626.4688,17.4375 628.3438,17.4375 Q629.2344,17.4375 629.9063,17.625 Q630.5781,17.7969 631.2656,18.1406 L630.4531,20.1563 Q629.8281,19.8438 629.2813,19.7188 Q628.75,19.5938 628.2656,19.5938 Q627.0938,19.5938 626.3906,20.125 Q625.6875,20.6563 625.3906,21.6094 Q625.0938,22.5625 625.0938,23.8281 Q625.0938,25.8438 625.8125,26.8125 Q626.5313,27.7656 628.125,27.7656 Q628.7188,27.7656 629.3438,27.6094 Q629.9688,27.4531 630.7969,27.0781 L630.7969,29.2969 Q630.0625,29.6094 629.2656,29.7656 Q628.4844,29.9219 627.7188,29.9219 Z " fill="#000000"/><text fill="#000000" font-family="sans-serif" font-size="14" lengthAdjust="spacing" textLength="138" x="648.75" y="28.432">VisibleKeyboardMap</text><line style="stroke:#181818;stroke-width:0.5;" x1="431" x2="972" y1="39" y2="39"/><text fill="#000000" font-family="sans-serif" font-size="14" lengthAdjust="spacing" text-decoration="underline" textLength="531" x="436" y="57.9659">from(KeyboardMap, Map&lt;KeysymEntry, Representation&gt;): VisibleKeyboardMap</text><text fill="#000000" font-family="sans-serif" font-size="14" lengthAdjust="spacing" textLength="140" x="436" y="77.0339">names(): String [0..*]</text></g><!--class RectangularKey--><g id="elem_RectangularKey"><rect codeLine="25" fill="#F1F1F1" height="97.2038" id="RectangularKey" rx="2.5" ry="2.5" style="stroke:#181818;stroke-width:0.5;" width="138" x="119.5" y="327.5"/><ellipse cx="134.5" cy="343.5" fill="#ADD1B2" rx="11" ry="11" style="stroke:#181818;stroke-width:1.0;"/><path d="M133.9688,350.4219 Q132.2188,350.4219 131.0781,349.6875 Q129.9531,348.9375 129.3906,347.5938 Q128.8438,346.2344 128.8438,344.4375 Q128.8438,342.4063 129.5,340.9531 Q130.1563,339.5 131.4375,338.7188 Q132.7188,337.9375 134.5938,337.9375 Q135.4844,337.9375 136.1563,338.125 Q136.8281,338.2969 137.5156,338.6406 L136.7031,340.6563 Q136.0781,340.3438 135.5313,340.2188 Q135,340.0938 134.5156,340.0938 Q133.3438,340.0938 132.6406,340.625 Q131.9375,341.1563 131.6406,342.1094 Q131.3438,343.0625 131.3438,344.3281 Q131.3438,346.3438 132.0625,347.3125 Q132.7813,348.2656 134.375,348.2656 Q134.9688,348.2656 135.5938,348.1094 Q136.2188,347.9531 137.0469,347.5781 L137.0469,349.7969 Q136.3125,350.1094 135.5156,350.2656 Q134.7344,350.4219 133.9688,350.4219 Z " fill="#000000"/><text fill="#000000" font-family="sans-serif" font-size="14" lengthAdjust="spacing" textLength="106" x="148.5" y="348.932">RectangularKey</text><line style="stroke:#181818;stroke-width:0.5;" x1="120.5" x2="256.5" y1="359.5" y2="359.5"/><text fill="#000000" font-family="sans-serif" font-size="14" lengthAdjust="spacing" textLength="93" x="125.5" y="378.4659">topLeftCorner</text><text fill="#000000" font-family="sans-serif" font-size="14" lengthAdjust="spacing" textLength="26" x="125.5" y="397.5339">size</text><text fill="#000000" font-family="sans-serif" font-size="14" lengthAdjust="spacing" textLength="120" x="125.5" y="416.6018">xKeyName: String</text></g><!--class RectangularKeyboard--><g id="elem_RectangularKeyboard"><rect codeLine="31" fill="#F1F1F1" height="59.0679" id="RectangularKeyboard" rx="2.5" ry="2.5" style="stroke:#181818;stroke-width:0.5;" width="250" x="63.5" y="459.5"/><ellipse cx="111.25" cy="475.5" fill="#ADD1B2" rx="11" ry="11" style="stroke:#181818;stroke-width:1.0;"/><path d="M110.7188,482.4219 Q108.9688,482.4219 107.8281,481.6875 Q106.7031,480.9375 106.1406,479.5938 Q105.5938,478.2344 105.5938,476.4375 Q105.5938,474.4063 106.25,472.9531 Q106.9063,471.5 108.1875,470.7188 Q109.4688,469.9375 111.3438,469.9375 Q112.2344,469.9375 112.9063,470.125 Q113.5781,470.2969 114.2656,470.6406 L113.4531,472.6563 Q112.8281,472.3438 112.2813,472.2188 Q111.75,472.0938 111.2656,472.0938 Q110.0938,472.0938 109.3906,472.625 Q108.6875,473.1563 108.3906,474.1094 Q108.0938,475.0625 108.0938,476.3281 Q108.0938,478.3438 108.8125,479.3125 Q109.5313,480.2656 111.125,480.2656 Q111.7188,480.2656 112.3438,480.1094 Q112.9688,479.9531 113.7969,479.5781 L113.7969,481.7969 Q113.0625,482.1094 112.2656,482.2656 Q111.4844,482.4219 110.7188,482.4219 Z " fill="#000000"/><text fill="#000000" font-family="sans-serif" font-size="14" lengthAdjust="spacing" textLength="146" x="131.75" y="480.932">RectangularKeyboard</text><line style="stroke:#181818;stroke-width:0.5;" x1="64.5" x2="312.5" y1="491.5" y2="491.5"/><text fill="#000000" font-family="sans-serif" font-size="14" lengthAdjust="spacing" textLength="238" x="69.5" y="510.4659">physicalKeys: RectangularKey [0..*]</text></g><!--class SvgKeyboard--><g id="elem_SvgKeyboard"><rect codeLine="35" fill="#F1F1F1" height="135.3396" id="SvgKeyboard" rx="2.5" ry="2.5" style="stroke:#181818;stroke-width:0.5;" width="398" x="502.5" y="308.5"/><ellipse cx="653.25" cy="324.5" fill="#ADD1B2" rx="11" ry="11" style="stroke:#181818;stroke-width:1.0;"/><path d="M652.7188,331.4219 Q650.9688,331.4219 649.8281,330.6875 Q648.7031,329.9375 648.1406,328.5938 Q647.5938,327.2344 647.5938,325.4375 Q647.5938,323.4063 648.25,321.9531 Q648.9063,320.5 650.1875,319.7188 Q651.4688,318.9375 653.3438,318.9375 Q654.2344,318.9375 654.9063,319.125 Q655.5781,319.2969 656.2656,319.6406 L655.4531,321.6563 Q654.8281,321.3438 654.2813,321.2188 Q653.75,321.0938 653.2656,321.0938 Q652.0938,321.0938 651.3906,321.625 Q650.6875,322.1563 650.3906,323.1094 Q650.0938,324.0625 650.0938,325.3281 Q650.0938,327.3438 650.8125,328.3125 Q651.5313,329.2656 653.125,329.2656 Q653.7188,329.2656 654.3438,329.1094 Q654.9688,328.9531 655.7969,328.5781 L655.7969,330.7969 Q655.0625,331.1094 654.2656,331.2656 Q653.4844,331.4219 652.7188,331.4219 Z " fill="#000000"/><text fill="#000000" font-family="sans-serif" font-size="14" lengthAdjust="spacing" textLength="88" x="673.75" y="329.932">SvgKeyboard</text><line style="stroke:#181818;stroke-width:0.5;" x1="503.5" x2="899.5" y1="340.5" y2="340.5"/><text fill="#000000" font-family="sans-serif" font-size="14" lengthAdjust="spacing" text-decoration="underline" textLength="325" x="508.5" y="359.4659">zonedFrom(RectangularKeyboard): SvgKeyboard</text><text fill="#000000" font-family="sans-serif" font-size="14" lengthAdjust="spacing" text-decoration="underline" textLength="211" x="508.5" y="378.5339">using(Document): SvgKeyboard</text><text fill="#000000" font-family="sans-serif" font-size="14" lengthAdjust="spacing" textLength="281" x="508.5" y="397.6018">keyName(zone: RectangleElement): String</text><text fill="#000000" font-family="sans-serif" font-size="14" lengthAdjust="spacing" textLength="193" x="508.5" y="416.6697">setFontSize(fontSize: double)</text><text fill="#000000" font-family="sans-serif" font-size="14" lengthAdjust="spacing" textLength="386" x="508.5" y="435.7376">withRepresentations(XKeyNamesRepresenter): Document</text></g><!--reverse link Representation to StringRepresentation--><g id="link_Representation_StringRepresentation"><path codeLine="12" d="M273.9643,189.2306 C365.4643,180.8106 512.32,167.31 613.5,158 " fill="none" id="Representation-backto-StringRepresentation" style="stroke:#181818;stroke-width:1.0;"/><polygon fill="none" points="256.04,190.88,274.5141,195.2053,273.4145,183.2558,256.04,190.88" style="stroke:#181818;stroke-width:1.0;"/></g><!--reverse link Representation to SvgRepresentation--><g id="link_Representation_SvgRepresentation"><path codeLine="13" d="M273.9644,204.7684 C368.0244,213.4184 521.63,227.55 621.86,236.77 " fill="none" id="Representation-backto-SvgRepresentation" style="stroke:#181818;stroke-width:1.0;"/><polygon fill="none" points="256.04,203.12,273.4149,210.7432,274.5138,198.7936,256.04,203.12" style="stroke:#181818;stroke-width:1.0;"/></g><!--reverse link XKeyNamesRepresenter to VisibleKeyboardMap--><g id="link_XKeyNamesRepresenter_VisibleKeyboardMap"><path codeLine="23" d="M388.02,46 C407.41,46 409.43,46 429.57,46 " fill="none" id="XKeyNamesRepresenter-backto-VisibleKeyboardMap" style="stroke:#181818;stroke-width:1.0;stroke-dasharray:7.0,7.0;"/><polygon fill="none" points="370.02,46,388.02,52,388.02,40,370.02,46" style="stroke:#181818;stroke-width:1.0;"/></g><!--SRC=[TLBBRi8m4BpdArQSaWfGpmZrqiAbZmD8LIN4mJWROjMn8zkX3PH_xveGI4Yu4EITdPcTtLJ429ZbheGCimqQ6qXC73WDHcnJ1x4mo9tGAWYuPDR2O86vGOlACVyyW4Dmh4jBPuJQTW40zbIPG8LeTEpwuJl2lcXUPFHEw8xez6yqkgDt5zoH2WAX79g4SOJ1rokM7on3Um6XgSoOLfSD5Q7gIQ89j4bXzJWUFwp9SptYfx1Y8v7eDvgP-9tb5Ut1-Wv-XCJeB6oKXq0_KtgmPJPJpfJ36uqdKkso4gLtPiEeDdVrScSw2cOLCvjYl1xr6cqidJkcjeLaXkhL04xdRtGhpzeeD7vfOe_q-JrBDPRTpt9IgQZojBI2C-c7zeasOTr4QPFjzakKUwqmdliyUwHyBjVEPbjXoMTOtri7zrqD57hsYpk9Cuarl1gK8a0tryejAOamEV-PGAmBoZMY-ezmwUBcdFfM4xMk_ny0]--></g></svg>