<?xml version="1.0" encoding="UTF-8" standalone="no"?><svg xmlns="http://www.w3.org/2000/svg" xmlns:xlink="http://www.w3.org/1999/xlink" contentScriptType="application/ecmascript" contentStyleType="text/css" height="514px" preserveAspectRatio="none" style="width:953px;height:514px;" version="1.1" viewBox="0 0 953 514" width="953px" zoomAndPan="magnify"><defs><filter height="300%" id="f10ii03thvy3po" width="300%" x="-1" y="-1"><feGaussianBlur result="blurOut" stdDeviation="2.0"/><feColorMatrix in="blurOut" result="blurOut2" type="matrix" values="0 0 0 0 0 0 0 0 0 0 0 0 0 0 0 0 0 0 .4 0"/><feOffset dx="4.0" dy="4.0" in="blurOut2" result="blurOut3"/><feBlend in="SourceGraphic" in2="blurOut3" mode="normal"/></filter></defs><g><!--MD5=[9115e81965336a72da3e8004153789ff]
class Representation--><rect fill="#FEFECE" filter="url(#f10ii03thvy3po)" height="32" id="Representation" style="stroke: #A80036; stroke-width: 1.5;" width="117" x="102.5" y="218.5"/><ellipse cx="117.5" cy="234.5" fill="#ADD1B2" rx="11" ry="11" style="stroke: #A80036; stroke-width: 1.0;"/><path d="M116.9688,241.4219 Q115.2188,241.4219 114.0781,240.6875 Q112.9531,239.9375 112.3906,238.5938 Q111.8438,237.2344 111.8438,235.4375 Q111.8438,233.4063 112.5,231.9531 Q113.1563,230.5 114.4375,229.7188 Q115.7188,228.9375 117.5938,228.9375 Q118.4844,228.9375 119.1563,229.125 Q119.8281,229.2969 120.5156,229.6406 L119.7031,231.6563 Q119.0781,231.3438 118.5313,231.2188 Q118,231.0938 117.5156,231.0938 Q116.3438,231.0938 115.6406,231.625 Q114.9375,232.1563 114.6406,233.1094 Q114.3438,234.0625 114.3438,235.3281 Q114.3438,237.3438 115.0625,238.3125 Q115.7813,239.2656 117.375,239.2656 Q117.9688,239.2656 118.5938,239.1094 Q119.2188,238.9531 120.0469,238.5781 L120.0469,240.7969 Q119.3125,241.1094 118.5156,241.2656 Q117.7344,241.4219 116.9688,241.4219 Z "/><text fill="#000000" font-family="sans-serif" font-size="12" lengthAdjust="spacingAndGlyphs" textLength="85" x="131.5" y="239.156">Representation</text><!--MD5=[7227f4ecf52678f1abb904cf5934f11c]
class StringRepresentation--><rect fill="#FEFECE" filter="url(#f10ii03thvy3po)" height="54.9819" id="StringRepresentation" style="stroke: #A80036; stroke-width: 1.5;" width="150" x="584" y="117"/><ellipse cx="599" cy="133" fill="#ADD1B2" rx="11" ry="11" style="stroke: #A80036; stroke-width: 1.0;"/><path d="M598.4688,139.9219 Q596.7188,139.9219 595.5781,139.1875 Q594.4531,138.4375 593.8906,137.0938 Q593.3438,135.7344 593.3438,133.9375 Q593.3438,131.9063 594,130.4531 Q594.6563,129 595.9375,128.2188 Q597.2188,127.4375 599.0938,127.4375 Q599.9844,127.4375 600.6563,127.625 Q601.3281,127.7969 602.0156,128.1406 L601.2031,130.1563 Q600.5781,129.8438 600.0313,129.7188 Q599.5,129.5938 599.0156,129.5938 Q597.8438,129.5938 597.1406,130.125 Q596.4375,130.6563 596.1406,131.6094 Q595.8438,132.5625 595.8438,133.8281 Q595.8438,135.8438 596.5625,136.8125 Q597.2813,137.7656 598.875,137.7656 Q599.4688,137.7656 600.0938,137.6094 Q600.7188,137.4531 601.5469,137.0781 L601.5469,139.2969 Q600.8125,139.6094 600.0156,139.7656 Q599.2344,139.9219 598.4688,139.9219 Z "/><text fill="#000000" font-family="sans-serif" font-size="12" lengthAdjust="spacingAndGlyphs" textLength="118" x="613" y="137.656">StringRepresentation</text><line style="stroke: #A80036; stroke-width: 1.5;" x1="585" x2="733" y1="149" y2="149"/><text fill="#000000" font-family="sans-serif" font-size="11" lengthAdjust="spacingAndGlyphs" textLength="69" x="590" y="164.7589">string: String</text><!--MD5=[a6d384d0066327d703b89db097c9df48]
class SvgRepresentation--><rect fill="#FEFECE" filter="url(#f10ii03thvy3po)" height="54.9819" id="SvgRepresentation" style="stroke: #A80036; stroke-width: 1.5;" width="137" x="590.5" y="207"/><ellipse cx="605.5" cy="223" fill="#ADD1B2" rx="11" ry="11" style="stroke: #A80036; stroke-width: 1.0;"/><path d="M604.9688,229.9219 Q603.2188,229.9219 602.0781,229.1875 Q600.9531,228.4375 600.3906,227.0938 Q599.8438,225.7344 599.8438,223.9375 Q599.8438,221.9063 600.5,220.4531 Q601.1563,219 602.4375,218.2188 Q603.7188,217.4375 605.5938,217.4375 Q606.4844,217.4375 607.1563,217.625 Q607.8281,217.7969 608.5156,218.1406 L607.7031,220.1563 Q607.0781,219.8438 606.5313,219.7188 Q606,219.5938 605.5156,219.5938 Q604.3438,219.5938 603.6406,220.125 Q602.9375,220.6563 602.6406,221.6094 Q602.3438,222.5625 602.3438,223.8281 Q602.3438,225.8438 603.0625,226.8125 Q603.7813,227.7656 605.375,227.7656 Q605.9688,227.7656 606.5938,227.6094 Q607.2188,227.4531 608.0469,227.0781 L608.0469,229.2969 Q607.3125,229.6094 606.5156,229.7656 Q605.7344,229.9219 604.9688,229.9219 Z "/><text fill="#000000" font-family="sans-serif" font-size="12" lengthAdjust="spacingAndGlyphs" textLength="105" x="619.5" y="227.656">SvgRepresentation</text><line style="stroke: #A80036; stroke-width: 1.5;" x1="591.5" x2="726.5" y1="239" y2="239"/><text fill="#000000" font-family="sans-serif" font-size="11" lengthAdjust="spacingAndGlyphs" textLength="78" x="596.5" y="254.7589">svg: Document</text><!--MD5=[c3ea1d3efd00a2f4ec3cbba2cff9b1c5]
class XKeyNamesRepresenter--><rect fill="#FEFECE" filter="url(#f10ii03thvy3po)" height="54.9819" id="XKeyNamesRepresenter" style="stroke: #A80036; stroke-width: 1.5;" width="283" x="19.5" y="299"/><ellipse cx="93.75" cy="315" fill="#B4A7E5" rx="11" ry="11" style="stroke: #A80036; stroke-width: 1.0;"/><path d="M89.7813,321.5 L89.7813,319.7969 L92.1406,319.5313 L92.1406,311.3281 L89.7813,311.0625 L89.7813,309.3594 L96.9219,309.3594 L96.9219,311.0625 L94.5,311.3281 L94.5,319.5313 L96.9219,319.7969 L96.9219,321.5 L89.7813,321.5 Z "/><text fill="#000000" font-family="sans-serif" font-size="12" font-style="italic" lengthAdjust="spacingAndGlyphs" textLength="126" x="114.25" y="319.656">XKeyNamesRepresenter</text><line style="stroke: #A80036; stroke-width: 1.5;" x1="20.5" x2="301.5" y1="331" y2="331"/><text fill="#000000" font-family="sans-serif" font-size="11" lengthAdjust="spacingAndGlyphs" textLength="271" x="25.5" y="346.7589">representations(name: String): Representation [0..*]</text><!--MD5=[58f200d7b7fa759d33439b27faad516d]
class XKeyNamesAndRepresenter--><rect fill="#FEFECE" filter="url(#f10ii03thvy3po)" height="84.9457" id="XKeyNamesAndRepresenter" style="stroke: #A80036; stroke-width: 1.5;" width="566" x="376" y="297"/><ellipse cx="575.75" cy="313" fill="#ADD1B2" rx="11" ry="11" style="stroke: #A80036; stroke-width: 1.0;"/><path d="M575.2188,319.9219 Q573.4688,319.9219 572.3281,319.1875 Q571.2031,318.4375 570.6406,317.0938 Q570.0938,315.7344 570.0938,313.9375 Q570.0938,311.9063 570.75,310.4531 Q571.4063,309 572.6875,308.2188 Q573.9688,307.4375 575.8438,307.4375 Q576.7344,307.4375 577.4063,307.625 Q578.0781,307.7969 578.7656,308.1406 L577.9531,310.1563 Q577.3281,309.8438 576.7813,309.7188 Q576.25,309.5938 575.7656,309.5938 Q574.5938,309.5938 573.8906,310.125 Q573.1875,310.6563 572.8906,311.6094 Q572.5938,312.5625 572.5938,313.8281 Q572.5938,315.8438 573.3125,316.8125 Q574.0313,317.7656 575.625,317.7656 Q576.2188,317.7656 576.8438,317.6094 Q577.4688,317.4531 578.2969,317.0781 L578.2969,319.2969 Q577.5625,319.6094 576.7656,319.7656 Q575.9844,319.9219 575.2188,319.9219 Z "/><text fill="#000000" font-family="sans-serif" font-size="12" lengthAdjust="spacingAndGlyphs" textLength="158" x="596.25" y="317.656">XKeyNamesAndRepresenter</text><line style="stroke: #A80036; stroke-width: 1.5;" x1="377" x2="941" y1="329" y2="329"/><text fill="#000000" font-family="sans-serif" font-size="11" lengthAdjust="spacingAndGlyphs" text-decoration="underline" textLength="452" x="382" y="344.7589">from(KeyboardMap, Map&lt;KeysymEntry, Representation&gt;): XKeyNamesAndRepresenter</text><text fill="#000000" font-family="sans-serif" font-size="11" lengthAdjust="spacingAndGlyphs" text-decoration="underline" textLength="554" x="382" y="359.7408">from(CanonicalKeyboardMap, Map&lt;CanonicalKeysymEntry, Representation&gt;): XKeyNamesAndRepresenter</text><text fill="#000000" font-family="sans-serif" font-size="11" lengthAdjust="spacingAndGlyphs" textLength="107" x="382" y="374.7227">names(): String [0..*]</text><!--MD5=[7242835464147b7f607d7089c0c9ef10]
class RectangularKey--><rect fill="#FEFECE" filter="url(#f10ii03thvy3po)" height="84.9457" id="RectangularKey" style="stroke: #A80036; stroke-width: 1.5;" width="119" x="101.5" y="8"/><ellipse cx="116.5" cy="24" fill="#ADD1B2" rx="11" ry="11" style="stroke: #A80036; stroke-width: 1.0;"/><path d="M115.9688,30.9219 Q114.2188,30.9219 113.0781,30.1875 Q111.9531,29.4375 111.3906,28.0938 Q110.8438,26.7344 110.8438,24.9375 Q110.8438,22.9063 111.5,21.4531 Q112.1563,20 113.4375,19.2188 Q114.7188,18.4375 116.5938,18.4375 Q117.4844,18.4375 118.1563,18.625 Q118.8281,18.7969 119.5156,19.1406 L118.7031,21.1563 Q118.0781,20.8438 117.5313,20.7188 Q117,20.5938 116.5156,20.5938 Q115.3438,20.5938 114.6406,21.125 Q113.9375,21.6563 113.6406,22.6094 Q113.3438,23.5625 113.3438,24.8281 Q113.3438,26.8438 114.0625,27.8125 Q114.7813,28.7656 116.375,28.7656 Q116.9688,28.7656 117.5938,28.6094 Q118.2188,28.4531 119.0469,28.0781 L119.0469,30.2969 Q118.3125,30.6094 117.5156,30.7656 Q116.7344,30.9219 115.9688,30.9219 Z "/><text fill="#000000" font-family="sans-serif" font-size="12" lengthAdjust="spacingAndGlyphs" textLength="87" x="130.5" y="28.656">RectangularKey</text><line style="stroke: #A80036; stroke-width: 1.5;" x1="102.5" x2="219.5" y1="40" y2="40"/><text fill="#000000" font-family="sans-serif" font-size="11" lengthAdjust="spacingAndGlyphs" textLength="75" x="107.5" y="55.7589">topLeftCorner</text><text fill="#000000" font-family="sans-serif" font-size="11" lengthAdjust="spacingAndGlyphs" textLength="19" x="107.5" y="70.7408">size</text><text fill="#000000" font-family="sans-serif" font-size="11" lengthAdjust="spacingAndGlyphs" textLength="93" x="107.5" y="85.7227">xKeyName: String</text><!--MD5=[ebd8bd9aea405a49a8e853a868e8f069]
class RectangularKeyboard--><rect fill="#FEFECE" filter="url(#f10ii03thvy3po)" height="54.9819" id="RectangularKeyboard" style="stroke: #A80036; stroke-width: 1.5;" width="195" x="63.5" y="128"/><ellipse cx="97.85" cy="144" fill="#ADD1B2" rx="11" ry="11" style="stroke: #A80036; stroke-width: 1.0;"/><path d="M97.3188,150.9219 Q95.5688,150.9219 94.4281,150.1875 Q93.3031,149.4375 92.7406,148.0938 Q92.1938,146.7344 92.1938,144.9375 Q92.1938,142.9063 92.85,141.4531 Q93.5063,140 94.7875,139.2188 Q96.0688,138.4375 97.9438,138.4375 Q98.8344,138.4375 99.5063,138.625 Q100.1781,138.7969 100.8656,139.1406 L100.0531,141.1563 Q99.4281,140.8438 98.8813,140.7188 Q98.35,140.5938 97.8656,140.5938 Q96.6938,140.5938 95.9906,141.125 Q95.2875,141.6563 94.9906,142.6094 Q94.6938,143.5625 94.6938,144.8281 Q94.6938,146.8438 95.4125,147.8125 Q96.1313,148.7656 97.725,148.7656 Q98.3188,148.7656 98.9438,148.6094 Q99.5688,148.4531 100.3969,148.0781 L100.3969,150.2969 Q99.6625,150.6094 98.8656,150.7656 Q98.0844,150.9219 97.3188,150.9219 Z "/><text fill="#000000" font-family="sans-serif" font-size="12" lengthAdjust="spacingAndGlyphs" textLength="120" x="116.15" y="148.656">RectangularKeyboard</text><line style="stroke: #A80036; stroke-width: 1.5;" x1="64.5" x2="257.5" y1="160" y2="160"/><text fill="#000000" font-family="sans-serif" font-size="11" lengthAdjust="spacingAndGlyphs" textLength="183" x="69.5" y="175.7589">physicalKeys: RectangularKey [0..*]</text><!--MD5=[539af361a717f85ed42a0b799f75ccb4]
class SvgKeyboard--><rect fill="#FEFECE" filter="url(#f10ii03thvy3po)" height="114.9094" id="SvgKeyboard" style="stroke: #A80036; stroke-width: 1.5;" width="310" x="6" y="389"/><ellipse cx="120.25" cy="405" fill="#ADD1B2" rx="11" ry="11" style="stroke: #A80036; stroke-width: 1.0;"/><path d="M119.7188,411.9219 Q117.9688,411.9219 116.8281,411.1875 Q115.7031,410.4375 115.1406,409.0938 Q114.5938,407.7344 114.5938,405.9375 Q114.5938,403.9063 115.25,402.4531 Q115.9063,401 117.1875,400.2188 Q118.4688,399.4375 120.3438,399.4375 Q121.2344,399.4375 121.9063,399.625 Q122.5781,399.7969 123.2656,400.1406 L122.4531,402.1563 Q121.8281,401.8438 121.2813,401.7188 Q120.75,401.5938 120.2656,401.5938 Q119.0938,401.5938 118.3906,402.125 Q117.6875,402.6563 117.3906,403.6094 Q117.0938,404.5625 117.0938,405.8281 Q117.0938,407.8438 117.8125,408.8125 Q118.5313,409.7656 120.125,409.7656 Q120.7188,409.7656 121.3438,409.6094 Q121.9688,409.4531 122.7969,409.0781 L122.7969,411.2969 Q122.0625,411.6094 121.2656,411.7656 Q120.4844,411.9219 119.7188,411.9219 Z "/><text fill="#000000" font-family="sans-serif" font-size="12" lengthAdjust="spacingAndGlyphs" textLength="73" x="140.75" y="409.656">SvgKeyboard</text><line style="stroke: #A80036; stroke-width: 1.5;" x1="7" x2="315" y1="421" y2="421"/><text fill="#000000" font-family="sans-serif" font-size="11" lengthAdjust="spacingAndGlyphs" text-decoration="underline" textLength="256" x="12" y="436.7589">zonedFrom(RectangularKeyboard): SvgKeyboard</text><text fill="#000000" font-family="sans-serif" font-size="11" lengthAdjust="spacingAndGlyphs" text-decoration="underline" textLength="165" x="12" y="451.7408">using(Document): SvgKeyboard</text><text fill="#000000" font-family="sans-serif" font-size="11" lengthAdjust="spacingAndGlyphs" textLength="216" x="12" y="466.7227">keyName(zone: RectangleElement): String</text><text fill="#000000" font-family="sans-serif" font-size="11" lengthAdjust="spacingAndGlyphs" textLength="150" x="12" y="481.7046">setFontSize(fontSize: double)</text><text fill="#000000" font-family="sans-serif" font-size="11" lengthAdjust="spacingAndGlyphs" textLength="298" x="12" y="496.6865">withRepresentations(XKeyNamesRepresenter): Document</text><!--MD5=[ff15ba1e37acf75fcac651f7477a43e6]
reverse link Representation to StringRepresentation--><path d="M239.18,217.32 C279.8,208.52 330.49,197.91 376,189.5 C446.32,176.5 526.93,163.87 583.91,155.31 " fill="none" id="Representation&lt;-StringRepresentation" style="stroke: #A80036; stroke-width: 1.0;"/><polygon fill="none" points="240.56,224.18,219.52,221.6,237.57,210.5,240.56,224.18" style="stroke: #A80036; stroke-width: 1.0;"/><!--MD5=[1f9a0d89d3d27d5dfcf838d18ab05a05]
reverse link Representation to SvgRepresentation--><path d="M239.96,234.5 C336.34,234.5 498.8,234.5 590.23,234.5 " fill="none" id="Representation&lt;-SvgRepresentation" style="stroke: #A80036; stroke-width: 1.0;"/><polygon fill="none" points="239.87,241.5,219.87,234.5,239.87,227.5,239.87,241.5" style="stroke: #A80036; stroke-width: 1.0;"/><!--MD5=[ba85a4f0a111b8596ffcf69e561283bb]
reverse link XKeyNamesRepresenter to XKeyNamesAndRepresenter--><path d="M323.01,330.72 C340.16,331.17 357.95,331.64 375.98,332.11 " fill="none" id="XKeyNamesRepresenter&lt;-XKeyNamesAndRepresenter" style="stroke: #A80036; stroke-width: 1.0;"/><polygon fill="none" points="322.62,337.71,302.81,330.19,322.98,323.72,322.62,337.71" style="stroke: #A80036; stroke-width: 1.0;"/><!--MD5=[42fad0855c9f28a4ac4d5e9e3437283a]
link RectangularKeyboard to Representation--><!--MD5=[9ee7389c133422a9fcacfa03653a8873]
link Representation to XKeyNamesRepresenter--><!--MD5=[69701f6e65fb9f388fc7719592c7b3a0]
link XKeyNamesRepresenter to SvgKeyboard--><!--MD5=[05c56bcae0e986de14d0e922552dd5fa]
@startuml Representable
hide empty members
left to right direction

class "Representation" {
}
class "StringRepresentation" {
  string: String
}
class "SvgRepresentation" {
  svg: Document
}
"Representation" <|- - "StringRepresentation"
"Representation" <|- - "SvgRepresentation"

interface "XKeyNamesRepresenter" {
  representations(name: String): Representation [0..*]
}

class "XKeyNamesAndRepresenter" {
  {static} from(KeyboardMap, Map<KeysymEntry, Representation>): XKeyNamesAndRepresenter
  {static} from(CanonicalKeyboardMap, Map<CanonicalKeysymEntry, Representation>): XKeyNamesAndRepresenter
  names(): String [0..*]
}
"XKeyNamesRepresenter" <|- - "XKeyNamesAndRepresenter"

class "RectangularKey" {
  topLeftCorner
  size
  xKeyName: String
}

class "RectangularKeyboard" {
  physicalKeys: RectangularKey [0..*]
}

class "SvgKeyboard" {
  {static} zonedFrom(RectangularKeyboard): SvgKeyboard
  {static} using(Document): SvgKeyboard
  keyName(zone: RectangleElement): String
  setFontSize(fontSize: double)
  withRepresentations(XKeyNamesRepresenter): Document
}

"RectangularKeyboard" -[hidden]> "Representation"
"Representation" -[hidden]> "XKeyNamesRepresenter"
"XKeyNamesRepresenter" -[hidden]> "SvgKeyboard"
@enduml

PlantUML version 1.2020.02(Sun Mar 01 11:22:07 CET 2020)
(GPL source distribution)
Java Runtime: OpenJDK Runtime Environment
JVM: OpenJDK 64-Bit Server VM
Java Version: 17.0.11+9-Debian-1deb12u1
Operating System: Linux
Default Encoding: UTF-8
Language: fr
Country: FR
--></g></svg>